<svg xmlns="http://www.w3.org/2000/svg" xmlns:xlink="http://www.w3.org/1999/xlink" width="800" zoomAndPan="magnify" viewBox="0 0 600 449.999984" height="600" preserveAspectRatio="xMidYMid meet" version="1.0"><defs><clipPath id="446cd358e9"><path d="M 286 58 L 320 58 L 320 89 L 286 89 Z M 286 58 " clip-rule="nonzero"/></clipPath><clipPath id="20b9714770"><path d="M 282.382812 64.710938 L 309.480469 51.832031 L 323.644531 81.636719 L 296.550781 94.515625 Z M 282.382812 64.710938 " clip-rule="nonzero"/></clipPath><clipPath id="3eaefaf279"><path d="M 282.382812 64.710938 L 309.480469 51.832031 L 323.644531 81.636719 L 296.550781 94.515625 Z M 282.382812 64.710938 " clip-rule="nonzero"/></clipPath><clipPath id="d8af978740"><path d="M 282.382812 64.710938 L 309.480469 51.832031 L 323.644531 81.636719 L 296.550781 94.515625 Z M 282.382812 64.710938 " clip-rule="nonzero"/></clipPath><clipPath id="fe5d5d5ffa"><path d="M 498 280 L 524.671875 280 L 524.671875 434 L 498 434 Z M 498 280 " clip-rule="nonzero"/></clipPath><clipPath id="a5f18b5925"><path d="M 497 280 L 524.671875 280 L 524.671875 434 L 497 434 Z M 497 280 " clip-rule="nonzero"/></clipPath><clipPath id="ac956b0ead"><path d="M 75.421875 124 L 88 124 L 88 156 L 75.421875 156 Z M 75.421875 124 " clip-rule="nonzero"/></clipPath><clipPath id="2de60e1027"><path d="M 428.058594 57.09375 L 495.628906 57.09375 L 495.628906 85.835938 L 428.058594 85.835938 Z M 428.058594 57.09375 " clip-rule="nonzero"/></clipPath><clipPath id="5356e71075"><path d="M 498.933594 48.882812 C 497.699219 70.421875 479.242188 86.882812 457.699219 85.648438 C 436.160156 84.417969 419.695312 65.960938 420.925781 44.425781 C 422.160156 22.886719 440.621094 6.425781 462.160156 7.660156 C 483.703125 8.890625 500.167969 27.347656 498.933594 48.882812 Z M 498.933594 48.882812 " clip-rule="nonzero"/></clipPath><clipPath id="24e7c247d8"><path d="M 449.683594 57.09375 L 472.53125 57.09375 L 472.53125 67.410156 L 449.683594 67.410156 Z M 449.683594 57.09375 " clip-rule="nonzero"/></clipPath><clipPath id="53d96807d8"><path d="M 498.933594 48.882812 C 497.699219 70.421875 479.242188 86.882812 457.699219 85.648438 C 436.160156 84.417969 419.695312 65.960938 420.925781 44.425781 C 422.160156 22.886719 440.621094 6.425781 462.160156 7.660156 C 483.703125 8.890625 500.167969 27.347656 498.933594 48.882812 Z M 498.933594 48.882812 " clip-rule="nonzero"/></clipPath><clipPath id="8273a05e32"><path d="M 454.597656 42.601562 L 467.375 42.601562 L 467.375 59.550781 L 454.597656 59.550781 Z M 454.597656 42.601562 " clip-rule="nonzero"/></clipPath><clipPath id="e3caa79da5"><path d="M 498.933594 48.882812 C 497.699219 70.421875 479.242188 86.882812 457.699219 85.648438 C 436.160156 84.417969 419.695312 65.960938 420.925781 44.425781 C 422.160156 22.886719 440.621094 6.425781 462.160156 7.660156 C 483.703125 8.890625 500.167969 27.347656 498.933594 48.882812 Z M 498.933594 48.882812 " clip-rule="nonzero"/></clipPath><clipPath id="1e9666bc81"><path d="M 454.597656 44.074219 L 467.375 44.074219 L 467.375 55 L 454.597656 55 Z M 454.597656 44.074219 " clip-rule="nonzero"/></clipPath><clipPath id="47c3865129"><path d="M 498.933594 48.882812 C 497.699219 70.421875 479.242188 86.882812 457.699219 85.648438 C 436.160156 84.417969 419.695312 65.960938 420.925781 44.425781 C 422.160156 22.886719 440.621094 6.425781 462.160156 7.660156 C 483.703125 8.890625 500.167969 27.347656 498.933594 48.882812 Z M 498.933594 48.882812 " clip-rule="nonzero"/></clipPath><clipPath id="da5c1cb09c"><path d="M 448.699219 22.210938 L 469.339844 22.210938 L 469.339844 39.40625 L 448.699219 39.40625 Z M 448.699219 22.210938 " clip-rule="nonzero"/></clipPath><clipPath id="9291423b69"><path d="M 498.933594 48.882812 C 497.699219 70.421875 479.242188 86.882812 457.699219 85.648438 C 436.160156 84.417969 419.695312 65.960938 420.925781 44.425781 C 422.160156 22.886719 440.621094 6.425781 462.160156 7.660156 C 483.703125 8.890625 500.167969 27.347656 498.933594 48.882812 Z M 498.933594 48.882812 " clip-rule="nonzero"/></clipPath><clipPath id="7d3b310f6f"><path d="M 449 28 L 469.339844 28 L 469.339844 50.214844 L 449 50.214844 Z M 449 28 " clip-rule="nonzero"/></clipPath><clipPath id="fb04940bdf"><path d="M 498.933594 48.882812 C 497.699219 70.421875 479.242188 86.882812 457.699219 85.648438 C 436.160156 84.417969 419.695312 65.960938 420.925781 44.425781 C 422.160156 22.886719 440.621094 6.425781 462.160156 7.660156 C 483.703125 8.890625 500.167969 27.347656 498.933594 48.882812 Z M 498.933594 48.882812 " clip-rule="nonzero"/></clipPath><clipPath id="7d201dbcea"><path d="M 454.597656 43.582031 L 461.96875 43.582031 L 461.96875 46.53125 L 454.597656 46.53125 Z M 454.597656 43.582031 " clip-rule="nonzero"/></clipPath><clipPath id="272500b580"><path d="M 498.933594 48.882812 C 497.699219 70.421875 479.242188 86.882812 457.699219 85.648438 C 436.160156 84.417969 419.695312 65.960938 420.925781 44.425781 C 422.160156 22.886719 440.621094 6.425781 462.160156 7.660156 C 483.703125 8.890625 500.167969 27.347656 498.933594 48.882812 Z M 498.933594 48.882812 " clip-rule="nonzero"/></clipPath><clipPath id="d6e739c131"><path d="M 413.5625 163.707031 L 506.6875 163.707031 L 506.6875 201.539062 L 413.5625 201.539062 Z M 413.5625 163.707031 " clip-rule="nonzero"/></clipPath><clipPath id="80169dc714"><path d="M 506.519531 154.894531 C 506.550781 180.550781 485.769531 201.371094 460.109375 201.398438 C 434.445312 201.425781 413.621094 180.652344 413.59375 154.996094 C 413.566406 129.339844 434.347656 108.519531 460.007812 108.492188 C 485.667969 108.464844 506.492188 129.242188 506.519531 154.894531 Z M 506.519531 154.894531 " clip-rule="nonzero"/></clipPath><clipPath id="f53e8bc87d"><path d="M 449.4375 162.234375 L 473.515625 162.234375 L 473.515625 172.308594 L 449.4375 172.308594 Z M 449.4375 162.234375 " clip-rule="nonzero"/></clipPath><clipPath id="9e0d523112"><path d="M 506.519531 154.894531 C 506.550781 180.550781 485.769531 201.371094 460.109375 201.398438 C 434.445312 201.425781 413.621094 180.652344 413.59375 154.996094 C 413.566406 129.339844 434.347656 108.519531 460.007812 108.492188 C 485.667969 108.464844 506.492188 129.242188 506.519531 154.894531 Z M 506.519531 154.894531 " clip-rule="nonzero"/></clipPath><clipPath id="d6234b348d"><path d="M 455.332031 146.511719 L 467.863281 146.511719 L 467.863281 164.691406 L 455.332031 164.691406 Z M 455.332031 146.511719 " clip-rule="nonzero"/></clipPath><clipPath id="9eeb4c2104"><path d="M 506.519531 154.894531 C 506.550781 180.550781 485.769531 201.371094 460.109375 201.398438 C 434.445312 201.425781 413.621094 180.652344 413.59375 154.996094 C 413.566406 129.339844 434.347656 108.519531 460.007812 108.492188 C 485.667969 108.464844 506.492188 129.242188 506.519531 154.894531 Z M 506.519531 154.894531 " clip-rule="nonzero"/></clipPath><clipPath id="b6fc86560d"><path d="M 455.332031 148 L 467.863281 148 L 467.863281 159.777344 L 455.332031 159.777344 Z M 455.332031 148 " clip-rule="nonzero"/></clipPath><clipPath id="26a3e227b9"><path d="M 506.519531 154.894531 C 506.550781 180.550781 485.769531 201.371094 460.109375 201.398438 C 434.445312 201.425781 413.621094 180.652344 413.59375 154.996094 C 413.566406 129.339844 434.347656 108.519531 460.007812 108.492188 C 485.667969 108.464844 506.492188 129.242188 506.519531 154.894531 Z M 506.519531 154.894531 " clip-rule="nonzero"/></clipPath><clipPath id="69523c8b44"><path d="M 432 119 L 487 119 L 487 148.722656 L 432 148.722656 Z M 432 119 " clip-rule="nonzero"/></clipPath><clipPath id="725ea88b74"><path d="M 506.519531 154.894531 C 506.550781 180.550781 485.769531 201.371094 460.109375 201.398438 C 434.445312 201.425781 413.621094 180.652344 413.59375 154.996094 C 413.566406 129.339844 434.347656 108.519531 460.007812 108.492188 C 485.667969 108.464844 506.492188 129.242188 506.519531 154.894531 Z M 506.519531 154.894531 " clip-rule="nonzero"/></clipPath><clipPath id="1ba3c7d90c"><path d="M 440 142.828125 L 452 142.828125 L 452 154.867188 L 440 154.867188 Z M 440 142.828125 " clip-rule="nonzero"/></clipPath><clipPath id="244d771c63"><path d="M 506.519531 154.894531 C 506.550781 180.550781 485.769531 201.371094 460.109375 201.398438 C 434.445312 201.425781 413.621094 180.652344 413.59375 154.996094 C 413.566406 129.339844 434.347656 108.519531 460.007812 108.492188 C 485.667969 108.464844 506.492188 129.242188 506.519531 154.894531 Z M 506.519531 154.894531 " clip-rule="nonzero"/></clipPath><clipPath id="fd5c260a5d"><path d="M 467.128906 142.828125 L 479.167969 142.828125 L 479.167969 154.867188 L 467.128906 154.867188 Z M 467.128906 142.828125 " clip-rule="nonzero"/></clipPath><clipPath id="19ac0fec50"><path d="M 506.519531 154.894531 C 506.550781 180.550781 485.769531 201.371094 460.109375 201.398438 C 434.445312 201.425781 413.621094 180.652344 413.59375 154.996094 C 413.566406 129.339844 434.347656 108.519531 460.007812 108.492188 C 485.667969 108.464844 506.492188 129.242188 506.519531 154.894531 Z M 506.519531 154.894531 " clip-rule="nonzero"/></clipPath><clipPath id="78f4ed792c"><path d="M 448.699219 130.546875 L 470.566406 130.546875 L 470.566406 154.621094 L 448.699219 154.621094 Z M 448.699219 130.546875 " clip-rule="nonzero"/></clipPath><clipPath id="30ab530118"><path d="M 506.519531 154.894531 C 506.550781 180.550781 485.769531 201.371094 460.109375 201.398438 C 434.445312 201.425781 413.621094 180.652344 413.59375 154.996094 C 413.566406 129.339844 434.347656 108.519531 460.007812 108.492188 C 485.667969 108.464844 506.492188 129.242188 506.519531 154.894531 Z M 506.519531 154.894531 " clip-rule="nonzero"/></clipPath><clipPath id="ba0b01ea1f"><path d="M 454.597656 147.496094 L 462.703125 147.496094 L 462.703125 150.6875 L 454.597656 150.6875 Z M 454.597656 147.496094 " clip-rule="nonzero"/></clipPath><clipPath id="70b5286e6c"><path d="M 506.519531 154.894531 C 506.550781 180.550781 485.769531 201.371094 460.109375 201.398438 C 434.445312 201.425781 413.621094 180.652344 413.59375 154.996094 C 413.566406 129.339844 434.347656 108.519531 460.007812 108.492188 C 485.667969 108.464844 506.492188 129.242188 506.519531 154.894531 Z M 506.519531 154.894531 " clip-rule="nonzero"/></clipPath><clipPath id="422c73e24d"><path d="M 447.472656 126.613281 L 472.53125 126.613281 L 472.53125 140.125 L 447.472656 140.125 Z M 447.472656 126.613281 " clip-rule="nonzero"/></clipPath><clipPath id="32641d537d"><path d="M 506.519531 154.894531 C 506.550781 180.550781 485.769531 201.371094 460.109375 201.398438 C 434.445312 201.425781 413.621094 180.652344 413.59375 154.996094 C 413.566406 129.339844 434.347656 108.519531 460.007812 108.492188 C 485.667969 108.464844 506.492188 129.242188 506.519531 154.894531 Z M 506.519531 154.894531 " clip-rule="nonzero"/></clipPath><clipPath id="534e8d2da6"><path d="M 360 190 L 390.957031 190 L 390.957031 220.210938 L 360 220.210938 Z M 360 190 " clip-rule="nonzero"/></clipPath><clipPath id="e36f124869"><path d="M 411.085938 216.492188 C 409.949219 236.320312 392.949219 251.476562 373.113281 250.34375 C 353.28125 249.210938 338.121094 232.210938 339.257812 212.382812 C 340.390625 192.550781 357.390625 177.398438 377.226562 178.53125 C 397.058594 179.664062 412.21875 196.660156 411.085938 216.492188 Z M 411.085938 216.492188 " clip-rule="nonzero"/></clipPath><clipPath id="40ab2af936"><path d="M 367.863281 217.753906 L 379.902344 217.753906 L 379.902344 235.441406 L 367.863281 235.441406 Z M 367.863281 217.753906 " clip-rule="nonzero"/></clipPath><clipPath id="2606e33b79"><path d="M 411.085938 216.492188 C 409.949219 236.320312 392.949219 251.476562 373.113281 250.34375 C 353.28125 249.210938 338.121094 232.210938 339.257812 212.382812 C 340.390625 192.550781 357.390625 177.398438 377.226562 178.53125 C 397.058594 179.664062 412.21875 196.660156 411.085938 216.492188 Z M 411.085938 216.492188 " clip-rule="nonzero"/></clipPath><clipPath id="c6346a0e9e"><path d="M 367.863281 217.753906 L 379.902344 217.753906 L 379.902344 228.070312 L 367.863281 228.070312 Z M 367.863281 217.753906 " clip-rule="nonzero"/></clipPath><clipPath id="ce6881c093"><path d="M 411.085938 216.492188 C 409.949219 236.320312 392.949219 251.476562 373.113281 250.34375 C 353.28125 249.210938 338.121094 232.210938 339.257812 212.382812 C 340.390625 192.550781 357.390625 177.398438 377.226562 178.53125 C 397.058594 179.664062 412.21875 196.660156 411.085938 216.492188 Z M 411.085938 216.492188 " clip-rule="nonzero"/></clipPath><clipPath id="00b6321523"><path d="M 365.894531 203.75 L 385 203.75 L 385 225 L 365.894531 225 Z M 365.894531 203.75 " clip-rule="nonzero"/></clipPath><clipPath id="78eae98ce7"><path d="M 411.085938 216.492188 C 409.949219 236.320312 392.949219 251.476562 373.113281 250.34375 C 353.28125 249.210938 338.121094 232.210938 339.257812 212.382812 C 340.390625 192.550781 357.390625 177.398438 377.226562 178.53125 C 397.058594 179.664062 412.21875 196.660156 411.085938 216.492188 Z M 411.085938 216.492188 " clip-rule="nonzero"/></clipPath><clipPath id="a2a6b07b3d"><path d="M 371.300781 216.035156 L 381.375 216.035156 L 381.375 220.699219 L 371.300781 220.699219 Z M 371.300781 216.035156 " clip-rule="nonzero"/></clipPath><clipPath id="e708b10188"><path d="M 411.085938 216.492188 C 409.949219 236.320312 392.949219 251.476562 373.113281 250.34375 C 353.28125 249.210938 338.121094 232.210938 339.257812 212.382812 C 340.390625 192.550781 357.390625 177.398438 377.226562 178.53125 C 397.058594 179.664062 412.21875 196.660156 411.085938 216.492188 Z M 411.085938 216.492188 " clip-rule="nonzero"/></clipPath><clipPath id="8402ff14b0"><path d="M 339.113281 232.492188 L 411.351562 232.492188 L 411.351562 250.425781 L 339.113281 250.425781 Z M 339.113281 232.492188 " clip-rule="nonzero"/></clipPath><clipPath id="d38bcb7d4f"><path d="M 411.085938 216.492188 C 409.949219 236.320312 392.949219 251.476562 373.113281 250.34375 C 353.28125 249.210938 338.121094 232.210938 339.257812 212.382812 C 340.390625 192.550781 357.390625 177.398438 377.226562 178.53125 C 397.058594 179.664062 412.21875 196.660156 411.085938 216.492188 Z M 411.085938 216.492188 " clip-rule="nonzero"/></clipPath><clipPath id="6897b87b89"><path d="M 389.238281 232.492188 L 411.351562 232.492188 L 411.351562 250.425781 L 389.238281 250.425781 Z M 389.238281 232.492188 " clip-rule="nonzero"/></clipPath><clipPath id="8a73bde3b3"><path d="M 411.085938 216.492188 C 409.949219 236.320312 392.949219 251.476562 373.113281 250.34375 C 353.28125 249.210938 338.121094 232.210938 339.257812 212.382812 C 340.390625 192.550781 357.390625 177.398438 377.226562 178.53125 C 397.058594 179.664062 412.21875 196.660156 411.085938 216.492188 Z M 411.085938 216.492188 " clip-rule="nonzero"/></clipPath><clipPath id="27f2a17923"><path d="M 339.113281 232.492188 L 359.507812 232.492188 L 359.507812 250.425781 L 339.113281 250.425781 Z M 339.113281 232.492188 " clip-rule="nonzero"/></clipPath><clipPath id="84d75f0b7a"><path d="M 411.085938 216.492188 C 409.949219 236.320312 392.949219 251.476562 373.113281 250.34375 C 353.28125 249.210938 338.121094 232.210938 339.257812 212.382812 C 340.390625 192.550781 357.390625 177.398438 377.226562 178.53125 C 397.058594 179.664062 412.21875 196.660156 411.085938 216.492188 Z M 411.085938 216.492188 " clip-rule="nonzero"/></clipPath><clipPath id="55e23d161e"><path d="M 357.789062 232.492188 L 390.46875 232.492188 L 390.46875 241 L 357.789062 241 Z M 357.789062 232.492188 " clip-rule="nonzero"/></clipPath><clipPath id="c4e874bce9"><path d="M 411.085938 216.492188 C 409.949219 236.320312 392.949219 251.476562 373.113281 250.34375 C 353.28125 249.210938 338.121094 232.210938 339.257812 212.382812 C 340.390625 192.550781 357.390625 177.398438 377.226562 178.53125 C 397.058594 179.664062 412.21875 196.660156 411.085938 216.492188 Z M 411.085938 216.492188 " clip-rule="nonzero"/></clipPath><clipPath id="3387f6612a"><path d="M 339.113281 231.753906 L 368.351562 231.753906 L 368.351562 250.425781 L 339.113281 250.425781 Z M 339.113281 231.753906 " clip-rule="nonzero"/></clipPath><clipPath id="be372c2fdd"><path d="M 411.085938 216.492188 C 409.949219 236.320312 392.949219 251.476562 373.113281 250.34375 C 353.28125 249.210938 338.121094 232.210938 339.257812 212.382812 C 340.390625 192.550781 357.390625 177.398438 377.226562 178.53125 C 397.058594 179.664062 412.21875 196.660156 411.085938 216.492188 Z M 411.085938 216.492188 " clip-rule="nonzero"/></clipPath><clipPath id="1981fca3bc"><path d="M 379.410156 232 L 408.894531 232 L 408.894531 233.476562 L 379.410156 233.476562 Z M 379.410156 232 " clip-rule="nonzero"/></clipPath><clipPath id="5b0f2ea61c"><path d="M 411.085938 216.492188 C 409.949219 236.320312 392.949219 251.476562 373.113281 250.34375 C 353.28125 249.210938 338.121094 232.210938 339.257812 212.382812 C 340.390625 192.550781 357.390625 177.398438 377.226562 178.53125 C 397.058594 179.664062 412.21875 196.660156 411.085938 216.492188 Z M 411.085938 216.492188 " clip-rule="nonzero"/></clipPath></defs><g clip-path="url(#446cd358e9)"><g clip-path="url(#20b9714770)"><g clip-path="url(#3eaefaf279)"><g clip-path="url(#d8af978740)"><path fill="#000000" d="M 311.199219 59.085938 L 297.488281 58.117188 C 296.449219 58.046875 295.429688 58.527344 294.828125 59.378906 L 286.921875 70.625 C 286.316406 71.484375 286.214844 72.601562 286.664062 73.539062 L 292.464844 85.753906 C 292.910156 86.6875 293.839844 87.320312 294.890625 87.390625 L 308.605469 88.359375 C 309.125 88.394531 309.640625 88.292969 310.097656 88.074219 C 310.558594 87.859375 310.960938 87.523438 311.261719 87.097656 L 319.171875 75.851562 C 319.777344 74.992188 319.875 73.875 319.429688 72.9375 L 313.625 60.722656 C 313.179688 59.785156 312.25 59.15625 311.199219 59.085938 Z M 306.726562 80.980469 C 302.476562 83 297.371094 81.167969 295.34375 76.898438 C 293.3125 72.632812 295.117188 67.515625 299.367188 65.496094 C 301.792969 64.34375 304.574219 64.410156 306.945312 65.644531 L 304.910156 68.617188 C 303.625 68.089844 302.164062 68.121094 300.898438 68.722656 C 298.421875 69.898438 297.367188 72.882812 298.550781 75.375 C 299.734375 77.863281 302.714844 78.933594 305.191406 77.753906 C 306.457031 77.152344 307.402344 76.042969 307.808594 74.710938 L 311.398438 75.007812 C 310.855469 77.628906 309.152344 79.824219 306.726562 80.980469 Z M 311.054688 70.222656 L 309.773438 70.832031 L 310.386719 72.121094 L 309.101562 72.734375 L 308.488281 71.441406 L 307.203125 72.050781 L 306.589844 70.761719 L 307.875 70.152344 L 307.261719 68.863281 L 308.546875 68.25 L 309.160156 69.542969 L 310.441406 68.929688 Z M 315.550781 68.085938 L 314.265625 68.695312 L 314.878906 69.988281 L 313.59375 70.597656 L 312.980469 69.304688 L 311.699219 69.917969 L 311.085938 68.625 L 312.367188 68.015625 L 311.753906 66.726562 L 313.039062 66.117188 L 313.652344 67.40625 L 314.9375 66.796875 Z M 315.550781 68.085938 " fill-opacity="1" fill-rule="nonzero"/></g></g></g></g><path fill="#000000" d="M 441.777344 239.238281 C 431.222656 239.238281 422.636719 247.820312 422.636719 258.375 L 422.636719 288.007812 C 422.636719 298.558594 431.222656 307.144531 441.777344 307.144531 C 452.335938 307.144531 460.921875 298.558594 460.921875 288.007812 L 460.921875 258.375 C 460.921875 247.820312 452.335938 239.238281 441.777344 239.238281 Z M 441.777344 308.230469 C 430.625 308.230469 421.550781 299.15625 421.550781 288.007812 L 421.550781 258.375 C 421.550781 247.226562 430.625 238.152344 441.777344 238.152344 C 452.929688 238.152344 462.003906 247.226562 462.003906 258.375 L 462.003906 288.007812 C 462.003906 299.15625 452.929688 308.230469 441.777344 308.230469 " fill-opacity="1" fill-rule="nonzero"/><path fill="#000000" d="M 466.539062 308.226562 C 455.386719 308.226562 446.3125 299.15625 446.3125 288.007812 L 446.3125 258.371094 C 446.3125 247.222656 455.386719 238.152344 466.539062 238.152344 C 477.691406 238.152344 486.765625 247.222656 486.765625 258.371094 L 486.765625 280.863281 C 486.765625 281.160156 486.523438 281.402344 486.226562 281.402344 C 485.925781 281.402344 485.679688 281.160156 485.679688 280.863281 L 485.679688 258.371094 C 485.679688 247.820312 477.09375 239.234375 466.539062 239.234375 C 455.984375 239.234375 447.394531 247.820312 447.394531 258.371094 L 447.394531 288.007812 C 447.394531 298.558594 455.984375 307.144531 466.539062 307.144531 C 477.09375 307.144531 485.679688 298.558594 485.679688 288.007812 C 485.679688 287.707031 485.925781 287.464844 486.226562 287.464844 C 486.523438 287.464844 486.765625 287.707031 486.765625 288.007812 C 486.765625 299.15625 477.691406 308.226562 466.539062 308.226562 " fill-opacity="1" fill-rule="nonzero"/><path fill="#fda4ff" d="M 489.203125 433.003906 L 382.859375 433.003906 L 393.324219 280.863281 L 489.203125 280.863281 L 489.203125 433.003906 " fill-opacity="1" fill-rule="nonzero"/><path fill="#000000" d="M 383.445312 432.460938 L 488.664062 432.460938 L 488.664062 281.402344 L 393.832031 281.402344 Z M 489.207031 433.542969 L 382.863281 433.542969 C 382.710938 433.542969 382.570312 433.484375 382.46875 433.371094 C 382.363281 433.261719 382.3125 433.117188 382.320312 432.964844 L 392.785156 280.824219 C 392.804688 280.539062 393.039062 280.320312 393.324219 280.320312 L 489.207031 280.320312 C 489.503906 280.320312 489.746094 280.5625 489.746094 280.863281 L 489.746094 433.003906 C 489.746094 433.304688 489.503906 433.542969 489.207031 433.542969 " fill-opacity="1" fill-rule="nonzero"/><path fill="#ffffff" d="M 504.898438 433.003906 L 489.054688 433.003906 L 489.054688 280.863281 L 508.152344 280.863281 L 504.898438 433.003906 " fill-opacity="1" fill-rule="nonzero"/><path fill="#000000" d="M 489.59375 432.460938 L 504.367188 432.460938 L 507.597656 281.402344 L 489.59375 281.402344 Z M 504.898438 433.542969 L 489.050781 433.542969 C 488.75 433.542969 488.507812 433.304688 488.507812 433.003906 L 488.507812 280.863281 C 488.507812 280.5625 488.75 280.320312 489.050781 280.320312 L 508.152344 280.320312 C 508.292969 280.320312 508.4375 280.378906 508.539062 280.484375 C 508.640625 280.585938 508.695312 280.726562 508.6875 280.871094 L 505.4375 433.011719 C 505.433594 433.308594 505.191406 433.542969 504.898438 433.542969 " fill-opacity="1" fill-rule="nonzero"/><g clip-path="url(#fe5d5d5ffa)"><path fill="#ffffff" d="M 504.898438 433.003906 L 524.125 433.003906 L 508.152344 280.859375 L 498.441406 291.644531 L 504.898438 433.003906 " fill-opacity="1" fill-rule="nonzero"/></g><g clip-path="url(#a5f18b5925)"><path fill="#000000" d="M 505.414062 432.460938 L 523.519531 432.460938 L 507.738281 282.128906 L 498.988281 291.839844 Z M 524.121094 433.542969 L 504.894531 433.542969 C 504.605469 433.542969 504.367188 433.320312 504.355469 433.027344 L 497.894531 291.667969 C 497.886719 291.527344 497.9375 291.386719 498.035156 291.28125 L 507.746094 280.5 C 507.886719 280.339844 508.117188 280.28125 508.316406 280.347656 C 508.519531 280.414062 508.664062 280.59375 508.6875 280.804688 L 524.660156 432.945312 C 524.675781 433.101562 524.625 433.253906 524.523438 433.363281 C 524.421875 433.480469 524.273438 433.542969 524.121094 433.542969 " fill-opacity="1" fill-rule="nonzero"/></g><path fill="#000000" d="M 498.441406 292.183594 C 498.289062 292.183594 498.136719 292.121094 498.03125 291.996094 L 488.644531 281.214844 C 488.503906 281.054688 488.46875 280.828125 488.558594 280.636719 C 488.644531 280.445312 488.839844 280.320312 489.050781 280.320312 L 508.152344 280.320312 C 508.449219 280.320312 508.691406 280.5625 508.691406 280.863281 C 508.691406 281.160156 508.449219 281.402344 508.152344 281.402344 L 490.242188 281.402344 L 498.847656 291.289062 C 499.042969 291.511719 499.023438 291.855469 498.792969 292.050781 C 498.691406 292.140625 498.566406 292.183594 498.441406 292.183594 " fill-opacity="1" fill-rule="nonzero"/><path fill="#020202" d="M 456.539062 444.695312 L 344.75 444.695312 L 350.941406 355.1875 L 450.347656 355.1875 L 456.539062 444.695312 " fill-opacity="1" fill-rule="nonzero"/><path fill="#fed101" d="M 431.78125 444.695312 L 319.992188 444.695312 L 326.183594 355.1875 L 437.972656 355.1875 L 431.78125 444.695312 " fill-opacity="1" fill-rule="nonzero"/><path fill="#000000" d="M 320.570312 444.152344 L 431.277344 444.152344 L 437.390625 355.730469 L 326.6875 355.730469 Z M 431.78125 445.238281 L 319.992188 445.238281 C 319.839844 445.238281 319.695312 445.171875 319.597656 445.066406 C 319.496094 444.953125 319.441406 444.808594 319.449219 444.65625 L 325.640625 355.148438 C 325.660156 354.867188 325.898438 354.648438 326.179688 354.648438 L 437.972656 354.648438 C 438.121094 354.648438 438.265625 354.707031 438.367188 354.816406 C 438.46875 354.929688 438.523438 355.078125 438.511719 355.226562 L 432.324219 444.730469 C 432.300781 445.015625 432.066406 445.238281 431.78125 445.238281 " fill-opacity="1" fill-rule="nonzero"/><path fill="#000000" d="M 353.464844 368.097656 C 352.1875 368.097656 351.152344 369.136719 351.152344 370.414062 C 351.152344 371.691406 352.1875 372.730469 353.464844 372.730469 C 354.742188 372.730469 355.78125 371.691406 355.78125 370.414062 C 355.78125 369.136719 354.742188 368.097656 353.464844 368.097656 Z M 353.464844 373.8125 C 351.589844 373.8125 350.066406 372.289062 350.066406 370.414062 C 350.066406 368.542969 351.589844 367.019531 353.464844 367.019531 C 355.339844 367.019531 356.863281 368.542969 356.863281 370.414062 C 356.863281 372.289062 355.339844 373.8125 353.464844 373.8125 " fill-opacity="1" fill-rule="nonzero"/><path fill="#000000" d="M 395.972656 368.097656 C 394.699219 368.097656 393.65625 369.136719 393.65625 370.414062 C 393.65625 371.691406 394.699219 372.730469 395.972656 372.730469 C 397.25 372.730469 398.285156 371.691406 398.285156 370.414062 C 398.285156 369.136719 397.25 368.097656 395.972656 368.097656 Z M 395.972656 373.8125 C 394.101562 373.8125 392.574219 372.285156 392.574219 370.414062 C 392.574219 368.539062 394.101562 367.015625 395.972656 367.015625 C 397.847656 367.015625 399.371094 368.539062 399.371094 370.414062 C 399.371094 372.285156 397.847656 373.8125 395.972656 373.8125 " fill-opacity="1" fill-rule="nonzero"/><path fill="#000000" d="M 374.765625 413.125 C 362.769531 413.125 353.015625 403.371094 353.015625 391.378906 L 353.015625 370.175781 C 353.015625 369.878906 353.257812 369.632812 353.558594 369.632812 C 353.859375 369.632812 354.101562 369.878906 354.101562 370.175781 L 354.101562 391.378906 C 354.101562 402.773438 363.371094 412.042969 374.765625 412.042969 C 386.160156 412.042969 395.429688 402.773438 395.429688 391.378906 L 395.429688 370.175781 C 395.429688 369.878906 395.671875 369.632812 395.972656 369.632812 C 396.273438 369.632812 396.515625 369.878906 396.515625 370.175781 L 396.515625 391.378906 C 396.515625 403.371094 386.757812 413.125 374.765625 413.125 " fill-opacity="1" fill-rule="nonzero"/><path fill="#000000" d="M 244.515625 83.257812 L 103.519531 83.285156 C 90.28125 83.289062 79.546875 94.003906 79.550781 107.222656 L 79.613281 425.429688 C 79.617188 438.648438 90.351562 449.363281 103.589844 449.359375 L 244.589844 449.332031 C 257.828125 449.328125 268.558594 438.613281 268.554688 425.394531 L 268.492188 107.1875 C 268.488281 93.96875 257.753906 83.253906 244.515625 83.257812 " fill-opacity="1" fill-rule="nonzero"/><g clip-path="url(#ac956b0ead)"><path fill="#000000" d="M 87.234375 124.367188 L 75.429688 124.367188 L 75.433594 155.574219 L 87.238281 155.570312 L 87.234375 124.367188 " fill-opacity="1" fill-rule="nonzero"/></g><path fill="#ffffff" d="M 87.230469 124.941406 L 81.570312 124.941406 L 81.574219 155.007812 L 87.238281 155.007812 L 87.230469 124.941406 " fill-opacity="1" fill-rule="nonzero"/><path fill="#000000" d="M 82.109375 125.480469 L 82.117188 154.464844 L 86.699219 154.464844 L 86.691406 125.480469 Z M 81.574219 155.546875 C 81.277344 155.546875 81.035156 155.304688 81.035156 155.007812 L 81.027344 124.941406 C 81.027344 124.796875 81.085938 124.660156 81.1875 124.558594 C 81.289062 124.457031 81.425781 124.398438 81.570312 124.398438 L 87.234375 124.398438 C 87.53125 124.398438 87.773438 124.640625 87.773438 124.941406 L 87.78125 155.003906 C 87.78125 155.148438 87.726562 155.289062 87.621094 155.386719 C 87.519531 155.488281 87.382812 155.546875 87.238281 155.546875 L 81.574219 155.546875 " fill-opacity="1" fill-rule="nonzero"/><path fill="#8c7bff" d="M 257.109375 83.253906 L 116.109375 83.28125 C 102.871094 83.285156 92.140625 94 92.144531 107.21875 L 92.203125 425.429688 C 92.207031 438.644531 102.941406 449.359375 116.179688 449.355469 L 257.179688 449.328125 C 270.421875 449.324219 281.148438 438.605469 281.148438 425.390625 L 281.082031 107.183594 C 281.082031 93.964844 270.34375 83.25 257.109375 83.253906 " fill-opacity="1" fill-rule="nonzero"/><path fill="#ffffff" d="M 92.140625 395.300781 L 280.863281 395.265625 L 280.8125 132.0625 L 92.089844 132.101562 L 92.140625 395.300781 " fill-opacity="1" fill-rule="nonzero"/><path fill="#000000" d="M 92.628906 132.640625 L 92.679688 394.761719 L 280.324219 394.722656 L 280.269531 132.605469 Z M 92.140625 395.839844 C 91.839844 395.839844 91.597656 395.601562 91.597656 395.300781 L 91.546875 132.097656 C 91.546875 131.957031 91.601562 131.820312 91.703125 131.71875 C 91.804688 131.613281 91.945312 131.558594 92.089844 131.558594 L 280.8125 131.519531 C 281.113281 131.519531 281.351562 131.765625 281.351562 132.0625 L 281.40625 395.265625 C 281.40625 395.40625 281.347656 395.542969 281.246094 395.648438 C 281.148438 395.746094 281.007812 395.804688 280.863281 395.804688 L 92.140625 395.839844 " fill-opacity="1" fill-rule="nonzero"/><path fill="#000000" d="M 257.277344 83.792969 C 257.273438 83.792969 257.273438 83.792969 257.269531 83.792969 L 115.875 83.820312 C 109.75 83.820312 103.914062 86.164062 99.4375 90.414062 C 95.121094 94.515625 92.644531 99.949219 92.648438 105.328125 L 92.707031 423.933594 C 92.710938 430.867188 95.132812 437.222656 99.527344 441.824219 C 103.832031 446.332031 109.660156 448.8125 115.941406 448.8125 C 115.945312 448.8125 115.945312 448.8125 115.945312 448.8125 L 257.34375 448.785156 C 270.585938 448.785156 280.570312 438.082031 280.566406 423.894531 L 280.507812 105.289062 C 280.503906 93.835938 269.648438 83.792969 257.277344 83.792969 Z M 115.941406 449.898438 C 109.363281 449.898438 103.253906 447.296875 98.742188 442.570312 C 94.15625 437.765625 91.628906 431.148438 91.625 423.933594 L 91.5625 105.328125 C 91.5625 99.65625 94.160156 93.933594 98.691406 89.628906 C 103.371094 85.1875 109.472656 82.738281 115.875 82.738281 L 257.269531 82.710938 L 257.269531 83.25 L 257.269531 82.710938 C 257.269531 82.710938 257.273438 82.710938 257.277344 82.710938 C 270.222656 82.710938 281.585938 93.261719 281.589844 105.289062 L 281.652344 423.894531 C 281.65625 438.699219 271.203125 449.867188 257.34375 449.871094 L 115.945312 449.898438 C 115.945312 449.898438 115.941406 449.898438 115.941406 449.898438 " fill-opacity="1" fill-rule="nonzero"/><path fill="#000000" d="M 180.226562 95.152344 C 179.929688 95.152344 179.6875 94.910156 179.6875 94.609375 C 179.6875 94.3125 179.929688 94.070312 180.226562 94.070312 L 220.683594 94.0625 C 220.984375 94.0625 221.226562 94.304688 221.226562 94.605469 C 221.226562 94.902344 220.984375 95.144531 220.683594 95.144531 L 180.226562 95.152344 " fill-opacity="1" fill-rule="nonzero"/><path fill="#000000" d="M 173.070312 92.1875 C 172.421875 92.1875 171.808594 92.441406 171.351562 92.898438 C 170.890625 93.359375 170.636719 93.96875 170.636719 94.617188 C 170.636719 95.265625 170.890625 95.875 171.351562 96.335938 C 171.8125 96.792969 172.421875 97.046875 173.070312 97.046875 C 174.414062 97.046875 175.507812 95.957031 175.507812 94.617188 C 175.507812 93.277344 174.414062 92.1875 173.070312 92.1875 Z M 173.070312 98.128906 C 172.132812 98.128906 171.25 97.761719 170.585938 97.101562 C 169.921875 96.4375 169.554688 95.554688 169.554688 94.617188 C 169.554688 93.679688 169.921875 92.796875 170.585938 92.132812 C 171.25 91.46875 172.132812 91.101562 173.070312 91.101562 C 175.011719 91.101562 176.589844 92.679688 176.589844 94.617188 C 176.589844 96.554688 175.011719 98.128906 173.070312 98.128906 " fill-opacity="1" fill-rule="nonzero"/><path fill="#955b50" d="M 137.511719 197.164062 L 153.992188 191.34375 L 146.496094 169.972656 L 130.015625 175.789062 L 137.511719 197.164062 " fill-opacity="1" fill-rule="nonzero"/><path fill="#000000" d="M 132.214844 182.058594 L 130.015625 175.789062 L 146.496094 169.972656 L 151.351562 183.808594 C 149.96875 184.632812 147.132812 186.054688 143.335938 186.128906 C 137.386719 186.25 133.304688 182.992188 132.214844 182.058594 " fill-opacity="1" fill-rule="nonzero"/><path fill="#000000" d="M 125.648438 172.25 L 137.671875 164.34375 L 152.097656 162.710938 L 152 159.542969 C 151.679688 148.839844 141.074219 141.542969 131.003906 145.09375 C 120.980469 148.632812 117.238281 160.902344 123.578125 169.457031 L 125.648438 172.25 " fill-opacity="1" fill-rule="nonzero"/><path fill="#955b50" d="M 125.519531 171.890625 C 128.367188 180.007812 136.609375 184.492188 143.933594 181.910156 C 151.253906 179.324219 154.878906 170.652344 152.035156 162.53125 C 149.1875 154.417969 140.945312 149.925781 133.625 152.511719 C 126.300781 155.097656 122.675781 163.769531 125.519531 171.890625 " fill-opacity="1" fill-rule="nonzero"/><path fill="#ffffff" d="M 142.296875 170.265625 C 142.296875 168.757812 143.515625 167.539062 145.015625 167.539062 C 146.519531 167.539062 147.734375 168.757812 147.734375 170.265625 C 147.734375 171.769531 146.519531 172.992188 145.015625 172.992188 C 143.515625 172.992188 142.296875 171.769531 142.296875 170.265625 " fill-opacity="1" fill-rule="nonzero"/><path fill="#fed101" d="M 117.992188 395.300781 L 171.941406 394.96875 L 167.449219 286.449219 L 121.378906 286.449219 L 117.992188 395.300781 " fill-opacity="1" fill-rule="nonzero"/><path fill="#fed101" d="M 187.566406 395.300781 L 241.417969 395.300781 L 240.007812 375.332031 C 239.164062 367.84375 237.339844 361.074219 233.886719 354.386719 L 197.488281 286.449219 L 151.417969 286.449219 L 186.894531 374.292969 L 187.566406 395.300781 " fill-opacity="1" fill-rule="nonzero"/><path fill="#000000" d="M 241.417969 395.84375 L 187.566406 395.84375 C 187.273438 395.84375 187.035156 395.609375 187.027344 395.316406 L 186.355469 374.40625 L 166.589844 324.085938 C 166.480469 323.804688 166.617188 323.492188 166.894531 323.382812 C 167.171875 323.273438 167.488281 323.410156 167.597656 323.6875 L 187.398438 374.09375 C 187.421875 374.152344 187.433594 374.214844 187.433594 374.273438 L 188.09375 394.761719 L 240.839844 394.761719 L 239.644531 377.4375 C 239.058594 368.90625 236.714844 360.761719 232.675781 353.230469 L 197.011719 286.707031 C 196.871094 286.441406 196.96875 286.113281 197.234375 285.972656 C 197.496094 285.832031 197.824219 285.929688 197.96875 286.191406 L 233.632812 352.722656 C 237.742188 360.386719 240.128906 368.679688 240.726562 377.363281 L 241.960938 395.265625 C 241.96875 395.414062 241.917969 395.5625 241.8125 395.671875 C 241.710938 395.78125 241.570312 395.84375 241.417969 395.84375 " fill-opacity="1" fill-rule="nonzero"/><path fill="#000000" d="M 198.410156 287.984375 L 194.503906 272.601562 L 120.941406 281.453125 L 120.941406 300.457031 C 136.953125 306.878906 150.65625 305.738281 158.4375 299.402344 C 168.652344 291.085938 179.867188 286.617188 198.410156 287.984375 " fill-opacity="1" fill-rule="nonzero"/><path fill="#000000" d="M 171.941406 395.84375 L 117.402344 395.84375 C 117.105469 395.84375 116.863281 395.601562 116.863281 395.300781 C 116.863281 395 117.105469 394.761719 117.402344 394.761719 L 171.941406 394.761719 C 172.242188 394.761719 172.484375 395 172.484375 395.300781 C 172.484375 395.601562 172.242188 395.84375 171.941406 395.84375 " fill-opacity="1" fill-rule="nonzero"/><path fill="#955b50" d="M 289.488281 159.546875 L 291.917969 144.078125 L 319.332031 127.699219 L 340.285156 164.492188 L 339.4375 165.484375 C 337.15625 168.148438 334.441406 170.40625 331.417969 172.160156 L 311.402344 183.769531 C 306.289062 186.738281 301.355469 190.007812 296.632812 193.566406 L 289.738281 198.761719 L 272.753906 179.648438 L 288.449219 162.183594 C 288.933594 161.367188 289.285156 160.476562 289.488281 159.546875 " fill-opacity="1" fill-rule="nonzero"/><path fill="#ffffff" d="M 308.769531 115.0625 L 299.976562 117.351562 L 321.320312 179.648438 L 331.722656 176.222656 L 308.769531 115.0625 " fill-opacity="1" fill-rule="nonzero"/><path fill="#000000" d="M 319.195312 26.789062 C 319.105469 26.789062 319.019531 26.765625 318.9375 26.71875 C 318.671875 26.574219 318.582031 26.246094 318.722656 25.984375 L 330.042969 5.554688 C 330.1875 5.292969 330.515625 5.199219 330.78125 5.34375 C 331.039062 5.488281 331.136719 5.816406 330.992188 6.078125 L 319.671875 26.511719 C 319.574219 26.6875 319.386719 26.789062 319.195312 26.789062 " fill-opacity="1" fill-rule="nonzero"/><path fill="#000000" d="M 274.625 129.894531 C 271.804688 129.894531 269.097656 128.601562 267.320312 126.28125 C 265.035156 123.296875 264.769531 119.261719 266.644531 116 L 309.691406 40.375 C 309.835938 40.117188 310.167969 40.027344 310.429688 40.175781 C 310.691406 40.320312 310.78125 40.652344 310.628906 40.914062 L 267.585938 116.539062 C 265.925781 119.421875 266.160156 122.988281 268.179688 125.621094 C 270.199219 128.253906 273.574219 129.394531 276.773438 128.527344 L 400.546875 94.792969 C 400.835938 94.714844 401.136719 94.882812 401.214844 95.171875 C 401.292969 95.460938 401.125 95.757812 400.835938 95.835938 L 277.058594 129.570312 C 276.25 129.789062 275.433594 129.894531 274.625 129.894531 " fill-opacity="1" fill-rule="nonzero"/><path fill="#ffffff" d="M 380.765625 56.527344 L 363.375 33.75 L 342.480469 44.425781 C 345.570312 49.519531 349.167969 54.761719 353.214844 59.980469 C 357.132812 65.039062 361.164062 69.691406 365.164062 73.863281 L 380.765625 56.527344 " fill-opacity="1" fill-rule="nonzero"/><path fill="#000000" d="M 366.78125 72.601562 C 366.652344 72.601562 366.523438 72.558594 366.417969 72.464844 C 366.195312 72.265625 366.179688 71.921875 366.378906 71.699219 L 380.363281 56.160156 C 380.566406 55.941406 380.90625 55.921875 381.132812 56.121094 C 381.351562 56.324219 381.371094 56.664062 381.167969 56.886719 L 367.183594 72.425781 C 367.078125 72.546875 366.929688 72.601562 366.78125 72.601562 " fill-opacity="1" fill-rule="nonzero"/><path fill="#000000" d="M 344.257812 44.058594 C 344.0625 44.058594 343.871094 43.949219 343.773438 43.761719 C 343.640625 43.496094 343.746094 43.167969 344.011719 43.03125 L 363.132812 33.265625 C 363.398438 33.128906 363.726562 33.234375 363.859375 33.5 C 364 33.769531 363.890625 34.09375 363.625 34.230469 L 344.507812 43.996094 C 344.425781 44.035156 344.34375 44.058594 344.257812 44.058594 " fill-opacity="1" fill-rule="nonzero"/><path fill="#000000" d="M 364.589844 33.9375 C 364.21875 33.9375 363.921875 34.027344 363.699219 34.199219 C 362.117188 35.433594 363.832031 41.28125 368.816406 47.710938 C 372.503906 52.472656 376.816406 56.003906 379.296875 56.300781 C 379.804688 56.363281 380.203125 56.277344 380.480469 56.054688 C 382.09375 54.769531 380.433594 48.890625 375.484375 42.5 C 371.828125 37.792969 367.492188 34.28125 364.929688 33.957031 C 364.8125 33.945312 364.699219 33.9375 364.589844 33.9375 Z M 379.609375 57.402344 C 379.464844 57.402344 379.320312 57.394531 379.167969 57.375 C 376.335938 57.035156 371.933594 53.503906 367.957031 48.371094 C 363.535156 42.671875 360.308594 35.46875 363.027344 33.347656 C 363.550781 32.9375 364.242188 32.78125 365.066406 32.886719 C 367.933594 33.246094 372.464844 36.84375 376.335938 41.839844 C 381.417969 48.390625 383.535156 55.003906 381.160156 56.902344 C 380.742188 57.234375 380.222656 57.402344 379.609375 57.402344 " fill-opacity="1" fill-rule="nonzero"/><path fill="#000000" d="M 337.898438 1.433594 C 336.027344 1.433594 334.480469 1.902344 333.28125 2.839844 C 329.476562 5.804688 329.414062 13.515625 333.105469 24 C 336.914062 34.820312 344.210938 47.480469 353.644531 59.652344 C 369.027344 79.492188 386.472656 93.671875 397.054688 94.9375 C 399.550781 95.234375 401.570312 94.785156 403.050781 93.605469 C 411.175781 87.117188 402.0625 61.023438 383.148438 36.625 C 367.933594 17 350.386719 2.898438 339.480469 1.535156 C 338.929688 1.46875 338.40625 1.433594 337.898438 1.433594 Z M 398.5 96.109375 C 397.996094 96.109375 397.46875 96.074219 396.925781 96.011719 C 386.074219 94.714844 368.335938 80.371094 352.789062 60.316406 C 343.285156 48.054688 335.933594 35.285156 332.082031 24.359375 C 328.175781 13.25 328.363281 5.304688 332.617188 1.984375 C 334.375 0.613281 336.730469 0.101562 339.617188 0.460938 C 350.785156 1.855469 368.625 16.125 384.003906 35.960938 C 403.605469 61.246094 412.457031 87.484375 403.726562 94.449219 C 402.347656 95.554688 400.589844 96.109375 398.5 96.109375 " fill-opacity="1" fill-rule="nonzero"/><path fill="#000000" d="M 302.460938 122.695312 L 321.65625 178.96875 L 331.019531 175.886719 L 310.390625 120.542969 Z M 321.316406 180.191406 C 321.09375 180.191406 320.882812 180.050781 320.804688 179.828125 L 301.25 122.503906 C 301.199219 122.359375 301.210938 122.203125 301.28125 122.070312 C 301.351562 121.941406 301.472656 121.84375 301.617188 121.800781 L 310.585938 119.367188 C 310.855469 119.292969 311.136719 119.4375 311.234375 119.699219 L 332.230469 176.035156 C 332.28125 176.171875 332.273438 176.324219 332.210938 176.457031 C 332.148438 176.59375 332.03125 176.691406 331.890625 176.738281 L 321.488281 180.164062 C 321.429688 180.179688 321.375 180.191406 321.316406 180.191406 " fill-opacity="1" fill-rule="nonzero"/><path fill="#000000" d="M 291.519531 198.148438 C 291.355469 198.148438 291.195312 198.074219 291.089844 197.9375 C 290.90625 197.699219 290.949219 197.359375 291.1875 197.175781 L 295.8125 193.625 C 300.863281 189.742188 306.214844 186.152344 311.722656 182.957031 L 333.652344 170.214844 C 335.421875 169.1875 337.15625 167.628906 338.542969 165.824219 C 338.722656 165.585938 339.0625 165.542969 339.300781 165.722656 C 339.539062 165.90625 339.582031 166.246094 339.402344 166.484375 C 337.914062 168.421875 336.113281 170.039062 334.195312 171.152344 L 312.265625 183.890625 C 306.800781 187.066406 301.488281 190.628906 296.46875 194.480469 L 291.847656 198.035156 C 291.75 198.109375 291.632812 198.148438 291.519531 198.148438 " fill-opacity="1" fill-rule="nonzero"/><path fill="#955b50" d="M 287.863281 153.414062 L 290.113281 165.863281 L 296 162.449219 C 299.792969 160.242188 302.070312 156.128906 301.9375 151.734375 C 302.078125 150.65625 301.058594 147.523438 303.890625 145.878906 C 304.324219 145.5625 307.625 144.21875 310.535156 139.765625 C 310.566406 139.65625 313.679688 135.824219 311.078125 131.320312 L 311.011719 131.203125 C 309.921875 129.3125 307.226562 129.242188 306.039062 131.074219 C 304.644531 133.234375 303.753906 134.898438 301.246094 136.351562 L 293.71875 140.726562 C 289.292969 143.292969 286.953125 148.371094 287.863281 153.414062 " fill-opacity="1" fill-rule="nonzero"/><path fill="#000000" d="M 272.753906 180.191406 C 272.625 180.191406 272.492188 180.144531 272.390625 180.054688 C 272.167969 179.851562 272.152344 179.507812 272.351562 179.285156 C 276.019531 175.25 278.859375 172.273438 281.144531 169.882812 C 288.863281 161.792969 288.863281 161.792969 287.589844 154.941406 C 287.511719 154.492188 287.421875 154.019531 287.332031 153.511719 C 286.378906 148.257812 288.839844 142.933594 293.441406 140.257812 L 300.976562 135.886719 C 303.121094 134.640625 304.03125 133.210938 305.183594 131.40625 L 305.585938 130.78125 C 306.226562 129.789062 307.304688 129.203125 308.484375 129.203125 C 308.511719 129.203125 308.539062 129.203125 308.570312 129.207031 C 309.78125 129.234375 310.871094 129.878906 311.480469 130.933594 L 311.546875 131.050781 C 313.871094 135.078125 311.960938 138.640625 311.03125 139.988281 L 311 140.035156 C 310.996094 140.042969 310.992188 140.054688 310.984375 140.0625 C 308.417969 143.992188 305.574219 145.558594 304.5 146.152344 C 304.363281 146.226562 304.265625 146.28125 304.210938 146.316406 C 304.195312 146.328125 304.179688 146.339844 304.164062 146.347656 C 302.226562 147.472656 302.359375 149.375 302.457031 150.765625 C 302.484375 151.148438 302.503906 151.484375 302.480469 151.757812 C 302.605469 156.34375 300.226562 160.617188 296.269531 162.914062 L 295.773438 163.207031 C 295.511719 163.355469 295.183594 163.269531 295.03125 163.007812 C 294.882812 162.75 294.972656 162.417969 295.230469 162.269531 L 295.726562 161.980469 C 299.351562 159.875 301.523438 155.957031 301.394531 151.753906 C 301.394531 151.722656 301.394531 151.695312 301.398438 151.667969 C 301.421875 151.488281 301.398438 151.175781 301.375 150.839844 C 301.273438 149.359375 301.097656 146.886719 303.597656 145.425781 C 303.675781 145.371094 303.804688 145.296875 303.980469 145.203125 C 304.984375 144.648438 307.648438 143.179688 310.0625 139.492188 C 310.082031 139.457031 310.105469 139.417969 310.140625 139.371094 C 310.953125 138.199219 312.621094 135.085938 310.605469 131.589844 L 310.539062 131.476562 C 310.121094 130.753906 309.375 130.308594 308.542969 130.285156 C 307.71875 130.261719 306.949219 130.667969 306.496094 131.367188 L 306.097656 131.988281 C 304.914062 133.839844 303.894531 135.441406 301.519531 136.824219 L 293.984375 141.195312 C 289.773438 143.644531 287.527344 148.515625 288.394531 153.320312 C 288.488281 153.824219 288.574219 154.296875 288.65625 154.742188 C 290.03125 162.140625 289.875 162.300781 281.925781 170.628906 C 279.648438 173.019531 276.8125 175.988281 273.152344 180.015625 C 273.050781 180.128906 272.902344 180.191406 272.753906 180.191406 " fill-opacity="1" fill-rule="nonzero"/><path fill="#955b50" d="M 323.875 161.941406 C 325.195312 164.230469 328.113281 165.011719 330.394531 163.6875 L 333.160156 162.269531 L 337.066406 168.296875 C 341.449219 163.050781 343.378906 158.320312 341.222656 154.128906 L 340.246094 152.4375 C 338.925781 150.144531 336.007812 149.367188 333.726562 150.691406 L 325.613281 155.402344 C 323.332031 156.726562 322.554688 159.65625 323.875 161.941406 " fill-opacity="1" fill-rule="nonzero"/><path fill="#955b50" d="M 315.632812 133.664062 C 316.953125 135.953125 319.871094 136.730469 322.152344 135.40625 L 327.261719 132.441406 L 332.539062 134.703125 L 332.921875 131.265625 C 333.519531 125.835938 327.570312 121.199219 322.304688 124.257812 L 317.371094 127.121094 C 315.089844 128.449219 314.3125 131.375 315.632812 133.664062 " fill-opacity="1" fill-rule="nonzero"/><path fill="#955b50" d="M 319.382812 142.550781 C 320.703125 144.835938 323.621094 145.617188 325.902344 144.292969 L 327.53125 143.347656 L 330.65625 148.761719 L 333.796875 146.9375 C 338.8125 144.023438 339.472656 138.796875 339.445312 138.863281 C 340.53125 133.511719 335.28125 127.78125 330.050781 130.820312 L 321.121094 136.007812 C 318.839844 137.332031 318.058594 140.261719 319.382812 142.550781 " fill-opacity="1" fill-rule="nonzero"/><path fill="#955b50" d="M 322.09375 151.902344 C 323.414062 154.191406 326.332031 154.972656 328.613281 153.648438 L 329.117188 153.355469 L 333.550781 161.53125 C 333.609375 161.480469 338.898438 160.117188 339.992188 150.703125 C 340.035156 150.070312 341.269531 147.253906 339.441406 144.089844 L 338.84375 143.050781 C 337.3125 140.402344 333.933594 139.496094 331.289062 141.03125 L 323.832031 145.363281 C 321.550781 146.6875 320.773438 149.617188 322.09375 151.902344 " fill-opacity="1" fill-rule="nonzero"/><path fill="#000000" d="M 319.773438 136.59375 C 319.3125 136.59375 318.855469 136.535156 318.398438 136.414062 C 317.027344 136.046875 315.875 135.164062 315.167969 133.933594 C 313.699219 131.390625 314.566406 128.125 317.101562 126.652344 L 322.035156 123.785156 C 324.316406 122.460938 326.9375 122.390625 329.242188 123.59375 C 331.640625 124.847656 333.265625 127.265625 333.480469 129.902344 C 333.507812 130.199219 333.28125 130.460938 332.984375 130.484375 C 332.6875 130.503906 332.425781 130.285156 332.398438 129.988281 C 332.214844 127.71875 330.8125 125.636719 328.734375 124.554688 C 326.773438 123.527344 324.53125 123.589844 322.578125 124.722656 L 317.644531 127.589844 C 315.628906 128.761719 314.933594 131.363281 316.105469 133.390625 C 316.671875 134.371094 317.582031 135.074219 318.675781 135.367188 C 319.769531 135.65625 320.90625 135.503906 321.882812 134.9375 L 323.753906 133.847656 C 324.011719 133.699219 324.34375 133.785156 324.496094 134.046875 C 324.644531 134.304688 324.554688 134.636719 324.300781 134.785156 L 322.425781 135.875 C 321.605469 136.351562 320.695312 136.59375 319.773438 136.59375 " fill-opacity="1" fill-rule="nonzero"/><path fill="#000000" d="M 323.523438 145.480469 C 323.066406 145.480469 322.605469 145.417969 322.148438 145.296875 C 320.777344 144.933594 319.625 144.050781 318.914062 142.816406 C 317.445312 140.273438 318.316406 137.007812 320.851562 135.539062 L 329.78125 130.347656 C 332.066406 129.023438 334.59375 129.140625 336.71875 130.664062 C 339.261719 132.484375 340.601562 135.898438 339.980469 138.96875 L 339.964844 138.964844 C 339.921875 139.796875 339.289062 141.5 338.75 142.519531 C 338.609375 142.785156 338.28125 142.886719 338.015625 142.746094 C 337.753906 142.605469 337.652344 142.277344 337.792969 142.015625 C 338.667969 140.351562 338.886719 138.996094 338.910156 138.839844 C 338.910156 138.8125 338.914062 138.78125 338.917969 138.753906 C 339.457031 136.089844 338.292969 133.125 336.089844 131.542969 C 335.054688 130.800781 332.921875 129.777344 330.324219 131.285156 L 321.394531 136.472656 C 319.375 137.644531 318.683594 140.25 319.851562 142.277344 C 320.417969 143.257812 321.335938 143.960938 322.429688 144.25 C 323.519531 144.542969 324.65625 144.386719 325.632812 143.820312 L 326.777344 143.15625 C 327.039062 143.003906 327.371094 143.09375 327.515625 143.351562 C 327.671875 143.609375 327.582031 143.941406 327.320312 144.09375 L 326.175781 144.757812 C 325.355469 145.234375 324.445312 145.480469 323.523438 145.480469 " fill-opacity="1" fill-rule="nonzero"/><path fill="#000000" d="M 326.230469 154.835938 C 325.773438 154.835938 325.3125 154.773438 324.859375 154.652344 C 323.484375 154.289062 322.335938 153.40625 321.625 152.171875 C 320.160156 149.632812 321.023438 146.367188 323.5625 144.894531 L 331.023438 140.5625 C 332.421875 139.746094 334.054688 139.527344 335.621094 139.945312 C 337.1875 140.363281 338.496094 141.367188 339.3125 142.777344 L 339.910156 143.820312 C 341.535156 146.632812 340.894531 149.222656 340.621094 150.328125 C 340.582031 150.492188 340.535156 150.679688 340.53125 150.742188 C 340.53125 150.765625 340.523438 150.789062 340.519531 150.816406 C 340.445312 151.171875 340.351562 151.527344 340.25 151.875 C 340.167969 152.164062 339.867188 152.328125 339.574219 152.242188 C 339.289062 152.15625 339.125 151.855469 339.210938 151.566406 C 339.304688 151.257812 339.386719 150.9375 339.453125 150.617188 C 339.46875 150.472656 339.511719 150.300781 339.570312 150.066406 C 339.832031 149.007812 340.378906 146.796875 338.972656 144.359375 L 338.371094 143.316406 C 337.703125 142.164062 336.628906 141.335938 335.339844 140.992188 C 334.054688 140.648438 332.714844 140.828125 331.566406 141.496094 L 324.105469 145.828125 C 322.085938 147.003906 321.394531 149.605469 322.5625 151.632812 C 323.128906 152.613281 324.046875 153.316406 325.140625 153.605469 C 326.230469 153.898438 327.363281 153.746094 328.34375 153.179688 L 328.84375 152.886719 C 329.105469 152.742188 329.4375 152.828125 329.585938 153.085938 C 329.734375 153.34375 329.648438 153.671875 329.390625 153.824219 L 328.886719 154.117188 C 328.066406 154.59375 327.15625 154.835938 326.230469 154.835938 " fill-opacity="1" fill-rule="nonzero"/><path fill="#000000" d="M 336.296875 169.527344 C 336.148438 169.527344 335.992188 169.460938 335.886719 169.335938 C 335.691406 169.105469 335.722656 168.765625 335.949219 168.570312 C 341.339844 164.011719 342.636719 157.667969 340.753906 154.402344 L 339.777344 152.707031 C 339.207031 151.722656 338.292969 151.023438 337.199219 150.730469 C 336.113281 150.4375 334.972656 150.59375 333.996094 151.160156 L 325.886719 155.871094 C 323.867188 157.042969 323.175781 159.644531 324.34375 161.671875 C 324.910156 162.65625 325.828125 163.359375 326.917969 163.652344 C 328.007812 163.941406 329.144531 163.785156 330.121094 163.21875 L 337.53125 158.960938 C 337.789062 158.808594 338.121094 158.898438 338.273438 159.160156 C 338.421875 159.417969 338.328125 159.75 338.074219 159.898438 L 330.664062 164.15625 C 329.441406 164.867188 328.007812 165.058594 326.640625 164.695312 C 325.265625 164.328125 324.117188 163.449219 323.40625 162.214844 C 321.9375 159.671875 322.804688 156.40625 325.34375 154.933594 L 333.453125 150.222656 C 334.679688 149.511719 336.113281 149.320312 337.480469 149.683594 C 338.855469 150.050781 340 150.929688 340.714844 152.167969 L 341.691406 153.859375 C 343.796875 157.503906 342.464844 164.480469 336.648438 169.398438 C 336.546875 169.484375 336.425781 169.527344 336.296875 169.527344 " fill-opacity="1" fill-rule="nonzero"/><path fill="#000000" d="M 311.648438 132.835938 C 311.460938 132.835938 311.285156 132.738281 311.183594 132.570312 C 311.027344 132.3125 311.113281 131.980469 311.367188 131.828125 L 314.769531 129.796875 C 315.023438 129.644531 315.359375 129.726562 315.511719 129.984375 C 315.664062 130.242188 315.582031 130.574219 315.324219 130.726562 L 311.925781 132.757812 C 311.839844 132.808594 311.742188 132.835938 311.648438 132.835938 " fill-opacity="1" fill-rule="nonzero"/><path fill="#8c7bff" d="M 271.789062 176.636719 L 225.921875 219.015625 L 194.992188 193.828125 C 186.957031 189.050781 177.5 187.261719 168.28125 188.777344 L 139.863281 192.992188 L 176.292969 230.371094 L 213.304688 251.761719 C 222.550781 256.820312 233.964844 255.519531 241.84375 248.507812 L 293.863281 199.617188 L 271.789062 176.636719 " fill-opacity="1" fill-rule="nonzero"/><path fill="#000000" d="M 225.238281 255.347656 C 221.0625 255.347656 216.863281 254.324219 213.042969 252.238281 L 196.941406 243.101562 C 196.683594 242.953125 196.59375 242.621094 196.738281 242.363281 C 196.886719 242.101562 197.214844 242.011719 197.480469 242.15625 L 213.574219 251.289062 C 222.582031 256.21875 233.800781 254.941406 241.484375 248.105469 L 293.097656 199.597656 L 271.769531 177.398438 L 226.289062 219.414062 C 226.089844 219.597656 225.789062 219.605469 225.578125 219.4375 L 194.679688 194.273438 C 186.773438 189.582031 177.429688 187.824219 168.371094 189.3125 L 153.761719 191.246094 C 153.464844 191.289062 153.191406 191.082031 153.152344 190.78125 C 153.113281 190.484375 153.320312 190.210938 153.617188 190.171875 L 168.210938 188.238281 C 177.523438 186.710938 187.136719 188.527344 195.265625 193.363281 C 195.289062 193.375 195.3125 193.390625 195.332031 193.410156 L 225.898438 218.296875 L 271.421875 176.242188 C 271.636719 176.039062 271.976562 176.050781 272.179688 176.265625 L 294.253906 199.242188 C 294.355469 199.347656 294.410156 199.488281 294.40625 199.632812 C 294.402344 199.777344 294.34375 199.914062 294.234375 200.011719 L 242.214844 248.90625 C 237.441406 253.152344 231.359375 255.347656 225.238281 255.347656 " fill-opacity="1" fill-rule="nonzero"/><path fill="#8c7bff" d="M 139.863281 192.992188 L 134.953125 193.835938 C 98.65625 199.269531 98.527344 211.804688 106.4375 238.101562 L 117.867188 286.449219 L 199.886719 283.210938 L 195.441406 221.230469 L 139.863281 192.992188 " fill-opacity="1" fill-rule="nonzero"/><path fill="#000000" d="M 117.867188 286.992188 C 117.617188 286.992188 117.398438 286.820312 117.339844 286.574219 L 108.222656 248.019531 C 108.15625 247.726562 108.335938 247.433594 108.628906 247.363281 C 108.921875 247.296875 109.210938 247.476562 109.277344 247.765625 L 118.292969 285.890625 L 199.304688 282.695312 L 196.03125 237.011719 C 196.007812 236.714844 196.230469 236.453125 196.53125 236.433594 C 196.828125 236.414062 197.089844 236.636719 197.109375 236.9375 L 200.425781 283.171875 C 200.4375 283.320312 200.386719 283.464844 200.289062 283.574219 C 200.191406 283.683594 200.054688 283.75 199.90625 283.753906 L 117.890625 286.992188 C 117.882812 286.992188 117.875 286.992188 117.867188 286.992188 " fill-opacity="1" fill-rule="nonzero"/><path fill="#955b50" d="M 191.777344 264.460938 L 205.613281 263.003906 C 205.613281 263.003906 205.871094 255.03125 214.296875 252.699219 C 216.25 252.15625 220.363281 251.398438 223.84375 250.796875 C 227.800781 250.113281 231.648438 248.90625 235.292969 247.21875 L 239.464844 245.277344 C 241.5625 244.304688 244.058594 245.15625 245.117188 247.210938 L 245.34375 247.652344 C 246.417969 249.734375 245.636719 252.292969 243.578125 253.417969 L 230.316406 260.65625 L 235.671875 265.65625 C 238.417969 268.222656 241.820312 269.96875 245.507812 270.707031 L 260.324219 273.976562 C 262.789062 274.523438 264.472656 276.796875 264.273438 279.316406 L 264.238281 279.742188 L 272.355469 280.710938 C 274.734375 281.070312 276.410156 283.238281 276.15625 285.632812 C 275.910156 287.984375 273.882812 289.746094 271.523438 289.660156 L 213.359375 287.601562 L 194.433594 288.988281 L 191.777344 264.460938 " fill-opacity="1" fill-rule="nonzero"/><path fill="#955b50" d="M 142.691406 234.300781 L 152.796875 263.636719 L 216.699219 262.46875 L 214.390625 286.886719 L 149.988281 291.808594 C 141.296875 292.230469 132.996094 288.179688 127.988281 281.074219 L 109.347656 236.898438 L 142.691406 234.300781 " fill-opacity="1" fill-rule="nonzero"/><path fill="#8c7bff" d="M 136.972656 214.589844 L 152.796875 263.636719 L 201.414062 259.664062 L 203.695312 290.980469 L 149.988281 291.808594 C 141.296875 292.230469 132.996094 288.179688 127.988281 281.074219 L 102.414062 220.46875 L 136.972656 214.589844 " fill-opacity="1" fill-rule="nonzero"/><path fill="#000000" d="M 148.703125 292.347656 C 140.277344 292.347656 132.433594 288.304688 127.539062 281.359375 C 127.519531 281.324219 127.5 281.292969 127.484375 281.257812 L 104.382812 226.527344 C 104.265625 226.25 104.394531 225.933594 104.671875 225.816406 C 104.945312 225.699219 105.265625 225.828125 105.382812 226.105469 L 128.460938 280.78125 C 133.386719 287.738281 141.410156 291.660156 149.945312 291.234375 L 203.6875 290.4375 C 203.980469 290.449219 204.230469 290.671875 204.234375 290.972656 C 204.242188 291.269531 204 291.515625 203.703125 291.519531 L 149.980469 292.316406 C 149.554688 292.339844 149.128906 292.347656 148.703125 292.347656 " fill-opacity="1" fill-rule="nonzero"/><path fill="#000000" d="M 204.097656 291.148438 C 203.820312 291.148438 203.582031 290.9375 203.558594 290.65625 L 200.921875 260.25 L 152.839844 264.175781 C 152.589844 264.195312 152.359375 264.042969 152.28125 263.800781 L 139.113281 222.992188 C 139.023438 222.707031 139.179688 222.402344 139.464844 222.3125 C 139.746094 222.222656 140.054688 222.375 140.144531 222.660156 L 153.179688 263.0625 L 201.371094 259.125 C 201.660156 259.105469 201.929688 259.320312 201.953125 259.617188 L 204.640625 290.5625 C 204.664062 290.859375 204.445312 291.125 204.144531 291.148438 C 204.128906 291.148438 204.113281 291.148438 204.097656 291.148438 " fill-opacity="1" fill-rule="nonzero"/><path fill="#ffffff" d="M 305.175781 276.667969 L 207.484375 276.667969 L 207.484375 211.078125 L 305.175781 211.078125 L 305.175781 276.667969 " fill-opacity="1" fill-rule="nonzero"/><path fill="#000000" d="M 208.023438 276.125 L 304.632812 276.125 L 304.632812 211.617188 L 208.023438 211.617188 Z M 305.175781 277.210938 L 207.484375 277.210938 C 207.183594 277.210938 206.941406 276.964844 206.941406 276.667969 L 206.941406 211.078125 C 206.941406 210.777344 207.183594 210.535156 207.484375 210.535156 L 305.175781 210.535156 C 305.472656 210.535156 305.71875 210.777344 305.71875 211.078125 L 305.71875 276.667969 C 305.71875 276.964844 305.472656 277.210938 305.175781 277.210938 " fill-opacity="1" fill-rule="nonzero"/><path fill="#000000" d="M 229.050781 276.667969 L 240.917969 276.667969 L 240.917969 211.078125 L 229.050781 211.078125 L 229.050781 276.667969 " fill-opacity="1" fill-rule="nonzero"/><path fill="#000000" d="M 207.484375 232.066406 L 207.484375 243.925781 L 305.121094 243.925781 L 305.121094 232.066406 L 207.484375 232.066406 " fill-opacity="1" fill-rule="nonzero"/><path fill="#4ada85" d="M 238.980469 210.59375 L 255.789062 207.34375 C 259.9375 206.542969 262.011719 201.851562 259.8125 198.246094 C 257.65625 194.714844 252.667969 194.335938 250 197.5 L 238.980469 210.59375 " fill-opacity="1" fill-rule="nonzero"/><path fill="#4ada85" d="M 237.410156 209.164062 L 248.367188 196.023438 C 251.074219 192.777344 249.707031 187.832031 245.722656 186.433594 C 241.816406 185.058594 237.714844 187.921875 237.652344 192.058594 L 237.410156 209.164062 " fill-opacity="1" fill-rule="nonzero"/><path fill="#4ada85" d="M 235.582031 209.476562 L 235.320312 192.371094 C 235.253906 188.148438 230.992188 185.289062 227.058594 186.824219 C 223.199219 188.328125 221.953125 193.167969 224.609375 196.34375 L 235.582031 209.476562 " fill-opacity="1" fill-rule="nonzero"/><path fill="#4ada85" d="M 233.898438 210.773438 L 222.863281 197.691406 C 220.140625 194.464844 215.03125 194.941406 212.953125 198.617188 C 210.917969 202.222656 213.019531 206.761719 217.085938 207.542969 L 233.898438 210.773438 " fill-opacity="1" fill-rule="nonzero"/><path fill="#000000" d="M 254.621094 195.886719 C 252.992188 195.886719 251.476562 196.585938 250.414062 197.851562 L 240.382812 209.769531 L 255.6875 206.8125 C 257.488281 206.464844 258.945312 205.304688 259.683594 203.625 C 260.425781 201.949219 260.304688 200.09375 259.351562 198.527344 C 258.414062 196.996094 256.847656 196.039062 255.058594 195.898438 C 254.910156 195.890625 254.765625 195.886719 254.621094 195.886719 Z M 238.980469 211.132812 C 238.792969 211.132812 238.613281 211.035156 238.515625 210.867188 C 238.398438 210.667969 238.417969 210.421875 238.566406 210.242188 L 249.585938 197.152344 C 250.972656 195.507812 252.988281 194.660156 255.140625 194.820312 C 257.28125 194.984375 259.152344 196.128906 260.273438 197.964844 C 261.417969 199.835938 261.5625 202.0625 260.675781 204.066406 C 259.789062 206.070312 258.046875 207.460938 255.890625 207.875 L 239.085938 211.125 C 239.050781 211.128906 239.015625 211.132812 238.980469 211.132812 " fill-opacity="1" fill-rule="nonzero"/><path fill="#000000" d="M 243.695312 186.625 C 242.589844 186.625 241.503906 186.960938 240.554688 187.625 C 239.082031 188.652344 238.222656 190.269531 238.195312 192.066406 L 237.972656 207.640625 L 247.953125 195.675781 C 249.128906 194.265625 249.519531 192.445312 249.03125 190.683594 C 248.546875 188.914062 247.273438 187.550781 245.542969 186.941406 C 244.9375 186.730469 244.3125 186.625 243.695312 186.625 Z M 237.410156 209.703125 C 237.347656 209.703125 237.285156 209.695312 237.222656 209.671875 C 237.007812 209.589844 236.863281 209.382812 236.867188 209.15625 L 237.113281 192.050781 C 237.144531 189.902344 238.171875 187.964844 239.933594 186.734375 C 241.699219 185.503906 243.875 185.207031 245.902344 185.921875 C 247.972656 186.648438 249.496094 188.28125 250.078125 190.394531 C 250.660156 192.507812 250.1875 194.683594 248.785156 196.367188 L 237.824219 209.507812 C 237.722656 209.636719 237.566406 209.703125 237.410156 209.703125 " fill-opacity="1" fill-rule="nonzero"/><path fill="#000000" d="M 229.277344 186.941406 C 228.597656 186.941406 227.914062 187.066406 227.253906 187.328125 C 225.578125 187.980469 224.363281 189.351562 223.914062 191.09375 C 223.46875 192.832031 223.871094 194.621094 225.023438 196 L 235.015625 207.953125 L 234.777344 192.378906 C 234.75 190.546875 233.859375 188.910156 232.339844 187.890625 C 231.40625 187.261719 230.347656 186.941406 229.277344 186.941406 Z M 235.582031 210.019531 C 235.421875 210.019531 235.269531 209.949219 235.164062 209.824219 L 224.191406 196.691406 C 222.8125 195.042969 222.332031 192.902344 222.863281 190.820312 C 223.402344 188.742188 224.855469 187.097656 226.859375 186.316406 C 228.90625 185.519531 231.121094 185.765625 232.941406 186.988281 C 234.765625 188.214844 235.828125 190.171875 235.859375 192.363281 L 236.121094 209.46875 C 236.125 209.695312 235.984375 209.902344 235.769531 209.984375 C 235.707031 210.003906 235.644531 210.019531 235.582031 210.019531 " fill-opacity="1" fill-rule="nonzero"/><path fill="#000000" d="M 218.253906 196.082031 C 218.078125 196.082031 217.898438 196.089844 217.71875 196.105469 C 215.890625 196.277344 214.328125 197.289062 213.425781 198.886719 C 212.542969 200.449219 212.46875 202.28125 213.222656 203.910156 C 213.980469 205.542969 215.425781 206.671875 217.1875 207.011719 L 232.496094 209.953125 L 222.449219 198.042969 C 221.386719 196.78125 219.878906 196.082031 218.253906 196.082031 Z M 233.898438 211.3125 C 233.863281 211.3125 233.828125 211.3125 233.796875 211.304688 L 216.984375 208.074219 C 214.875 207.667969 213.144531 206.316406 212.242188 204.363281 C 211.339844 202.414062 211.425781 200.222656 212.480469 198.355469 C 213.5625 196.441406 215.433594 195.230469 217.617188 195.027344 C 219.804688 194.824219 221.863281 195.667969 223.277344 197.34375 L 234.3125 210.425781 C 234.457031 210.597656 234.480469 210.847656 234.363281 211.046875 C 234.265625 211.214844 234.085938 211.3125 233.898438 211.3125 " fill-opacity="1" fill-rule="nonzero"/><path fill="#4ada85" d="M 206.242188 229.546875 L 206.242188 241.40625 L 306.800781 241.40625 L 306.800781 229.546875 L 206.242188 229.546875 " fill-opacity="1" fill-rule="nonzero"/><path fill="#4ada85" d="M 231.570312 276.253906 L 243.4375 276.253906 L 243.4375 211.492188 L 231.570312 211.492188 L 231.570312 276.253906 " fill-opacity="1" fill-rule="nonzero"/><path fill="#000000" d="M 271.679688 290.203125 C 271.621094 290.203125 271.5625 290.203125 271.503906 290.203125 L 213.339844 288.144531 L 204.175781 288.679688 C 203.863281 288.691406 203.621094 288.46875 203.601562 288.167969 C 203.585938 287.875 203.8125 287.613281 204.109375 287.597656 L 213.328125 287.0625 L 271.539062 289.117188 C 273.617188 289.199219 275.402344 287.636719 275.617188 285.578125 C 275.84375 283.464844 274.375 281.566406 272.273438 281.246094 L 264.171875 280.28125 C 263.882812 280.246094 263.671875 279.992188 263.695312 279.699219 L 263.730469 279.269531 C 263.910156 277.035156 262.398438 274.992188 260.210938 274.507812 L 245.390625 271.234375 C 241.617188 270.480469 238.121094 268.6875 235.300781 266.050781 L 229.945312 261.050781 C 229.820312 260.933594 229.757812 260.757812 229.777344 260.585938 C 229.800781 260.414062 229.902344 260.261719 230.054688 260.175781 L 243.320312 252.941406 C 245.101562 251.96875 245.792969 249.707031 244.863281 247.898438 L 244.636719 247.460938 C 243.707031 245.660156 241.535156 244.914062 239.695312 245.769531 L 235.519531 247.707031 C 231.828125 249.421875 227.929688 250.640625 223.933594 251.328125 C 219.289062 252.132812 216.007812 252.785156 214.441406 253.21875 C 206.492188 255.421875 206.15625 262.945312 206.152344 263.023438 C 206.144531 263.316406 205.90625 263.546875 205.613281 263.546875 C 205.453125 263.546875 201.71875 263.609375 201.71875 263.609375 L 201.699219 262.527344 C 201.699219 262.527344 204.066406 262.488281 205.121094 262.46875 C 205.359375 260.605469 206.714844 254.234375 214.152344 252.175781 C 216.171875 251.613281 220.488281 250.824219 223.75 250.261719 C 227.652344 249.589844 231.457031 248.398438 235.0625 246.726562 L 239.238281 244.789062 C 241.609375 243.6875 244.402344 244.644531 245.597656 246.964844 L 245.828125 247.402344 C 247.027344 249.726562 246.132812 252.640625 243.835938 253.890625 L 231.234375 260.769531 L 236.042969 265.261719 C 238.714844 267.757812 242.023438 269.457031 245.613281 270.175781 L 260.445312 273.449219 C 263.125 274.042969 264.996094 276.535156 264.816406 279.269531 L 272.417969 280.171875 C 275.109375 280.578125 276.980469 283.003906 276.695312 285.691406 C 276.425781 288.253906 274.238281 290.203125 271.679688 290.203125 " fill-opacity="1" fill-rule="nonzero"/><path fill="#955b50" d="M 227.5625 277.472656 L 231.945312 277.367188 C 234.730469 277.292969 237.4375 276.417969 239.734375 274.84375 L 252.308594 266.207031 C 254.117188 264.964844 256.589844 265.40625 257.855469 267.195312 C 259.066406 268.898438 258.761719 271.246094 257.164062 272.589844 L 244.082031 283.578125 C 243.023438 284.464844 241.800781 285.128906 240.480469 285.535156 L 233.371094 287.726562 L 227.5625 277.472656 " fill-opacity="1" fill-rule="nonzero"/><path fill="#955b50" d="M 239.152344 276.792969 L 243.488281 277.40625 C 246.25 277.800781 249.0625 277.382812 251.589844 276.207031 L 265.417969 269.769531 C 267.40625 268.84375 269.773438 269.683594 270.726562 271.660156 C 271.636719 273.542969 270.949219 275.804688 269.152344 276.863281 L 254.433594 285.539062 C 253.242188 286.238281 251.925781 286.695312 250.554688 286.878906 L 243.183594 287.863281 L 239.152344 276.792969 " fill-opacity="1" fill-rule="nonzero"/><path fill="#000000" d="M 250.554688 287.417969 C 250.289062 287.417969 250.054688 287.222656 250.019531 286.949219 C 249.980469 286.652344 250.1875 286.378906 250.484375 286.339844 C 251.789062 286.164062 253.023438 285.742188 254.160156 285.074219 L 268.875 276.398438 C 270.421875 275.488281 271.019531 273.511719 270.242188 271.898438 C 269.417969 270.199219 267.359375 269.460938 265.648438 270.257812 L 255.046875 275.25 C 254.777344 275.375 254.453125 275.257812 254.328125 274.988281 C 254.199219 274.71875 254.316406 274.394531 254.585938 274.269531 L 265.1875 269.28125 C 267.433594 268.234375 270.136719 269.195312 271.214844 271.425781 C 272.238281 273.542969 271.453125 276.136719 269.425781 277.332031 L 254.707031 286.003906 C 253.449219 286.746094 252.074219 287.222656 250.628906 287.414062 C 250.601562 287.414062 250.578125 287.417969 250.554688 287.417969 " fill-opacity="1" fill-rule="nonzero"/><path fill="#000000" d="M 237.039062 286.632812 C 236.773438 286.632812 236.542969 286.4375 236.503906 286.164062 C 236.460938 285.867188 236.667969 285.597656 236.964844 285.554688 C 240.972656 284.996094 243.496094 283.988281 245.667969 282.074219 L 256.804688 272.183594 C 258.1875 271.019531 258.453125 268.972656 257.414062 267.507812 C 256.324219 265.96875 254.171875 265.585938 252.617188 266.652344 L 240.039062 275.289062 C 237.652344 276.929688 234.855469 277.832031 231.960938 277.90625 L 222.941406 277.457031 C 222.644531 277.441406 222.414062 277.1875 222.429688 276.890625 C 222.441406 276.589844 222.691406 276.355469 222.996094 276.375 L 231.972656 276.824219 C 234.617188 276.757812 237.210938 275.917969 239.425781 274.394531 L 252 265.761719 C 254.042969 264.359375 256.867188 264.863281 258.296875 266.882812 C 259.660156 268.800781 259.3125 271.492188 257.511719 273.003906 L 246.386719 282.882812 C 244.070312 284.925781 241.296875 286.046875 237.113281 286.628906 C 237.089844 286.628906 237.0625 286.632812 237.039062 286.632812 " fill-opacity="1" fill-rule="nonzero"/><path fill="#000000" d="M 224.242188 264.414062 C 224.046875 264.414062 223.863281 264.308594 223.761719 264.125 C 223.625 263.863281 223.722656 263.535156 223.988281 263.394531 L 230.214844 260.082031 C 230.480469 259.941406 230.808594 260.039062 230.949219 260.304688 C 231.089844 260.566406 230.988281 260.898438 230.726562 261.039062 L 224.496094 264.351562 C 224.414062 264.394531 224.328125 264.414062 224.242188 264.414062 " fill-opacity="1" fill-rule="nonzero"/><path fill="#000000" d="M 499.730469 51.003906 C 498.503906 72.539062 480.039062 89 458.496094 87.769531 C 436.957031 86.535156 420.496094 68.078125 421.726562 46.542969 C 422.960938 25.003906 441.417969 8.546875 462.960938 9.777344 C 484.503906 11.007812 500.964844 29.46875 499.730469 51.003906 " fill-opacity="1" fill-rule="nonzero"/><path fill="#ffffff" d="M 498.933594 48.886719 C 497.699219 70.421875 479.242188 86.882812 457.699219 85.648438 C 436.160156 84.417969 419.691406 65.960938 420.929688 44.425781 C 422.15625 22.886719 440.621094 6.425781 462.160156 7.660156 C 483.703125 8.890625 500.167969 27.347656 498.933594 48.886719 " fill-opacity="1" fill-rule="nonzero"/><path fill="#ffffff" d="M 459.878906 7.863281 C 450.351562 7.863281 441.277344 11.3125 434.109375 17.703125 C 426.375 24.597656 421.792969 34.09375 421.199219 44.441406 C 419.972656 65.789062 436.355469 84.15625 457.714844 85.378906 C 479.074219 86.601562 497.441406 70.222656 498.664062 48.871094 L 498.9375 48.882812 L 498.664062 48.871094 C 499.886719 27.515625 483.503906 9.148438 462.144531 7.929688 C 461.390625 7.882812 460.632812 7.863281 459.878906 7.863281 Z M 459.984375 85.984375 C 459.21875 85.984375 458.453125 85.960938 457.679688 85.921875 C 436.027344 84.679688 419.414062 66.058594 420.65625 44.40625 C 421.257812 33.917969 425.90625 24.292969 433.75 17.296875 C 441.589844 10.308594 451.691406 6.785156 462.175781 7.386719 C 483.835938 8.628906 500.445312 27.25 499.203125 48.902344 C 498.605469 59.390625 493.953125 69.011719 486.113281 76.007812 C 478.847656 82.488281 469.640625 85.984375 459.984375 85.984375 " fill-opacity="1" fill-rule="nonzero"/><g clip-path="url(#2de60e1027)"><g clip-path="url(#5356e71075)"><path fill="#fed101" d="M 460.410156 57.125 L 462.425781 57.101562 C 477.296875 56.9375 490.164062 67.433594 492.988281 82.03125 L 495.609375 95.597656 L 428.074219 96.339844 L 430.398438 82.714844 C 432.90625 68.058594 445.535156 57.289062 460.410156 57.125 " fill-opacity="1" fill-rule="nonzero"/></g></g><g clip-path="url(#24e7c247d8)"><g clip-path="url(#53d96807d8)"><path fill="#955b50" d="M 472.390625 58.675781 C 469.09375 57.625 465.582031 57.066406 461.929688 57.105469 L 460.90625 57.117188 C 457.023438 57.160156 453.304688 57.875 449.859375 59.132812 C 451.421875 63.886719 455.914062 67.300781 461.1875 67.242188 C 466.535156 67.183594 470.996094 63.566406 472.390625 58.675781 " fill-opacity="1" fill-rule="nonzero"/></g></g><g clip-path="url(#8273a05e32)"><g clip-path="url(#e3caa79da5)"><path fill="#955b50" d="M 467.34375 59.292969 L 454.859375 59.429688 L 454.675781 42.835938 L 467.160156 42.695312 L 467.34375 59.292969 " fill-opacity="1" fill-rule="nonzero"/></g></g><g clip-path="url(#1e9666bc81)"><g clip-path="url(#47c3865129)"><path fill="#000000" d="M 467.175781 44.105469 L 454.695312 44.242188 L 454.746094 49.027344 C 455.273438 49.914062 457.3125 53.082031 461.410156 54.382812 C 463.933594 55.1875 466.125 54.925781 467.296875 54.691406 L 467.175781 44.105469 " fill-opacity="1" fill-rule="nonzero"/></g></g><g clip-path="url(#da5c1cb09c)"><g clip-path="url(#9291423b69)"><path fill="#000000" d="M 469.128906 39.261719 L 459.125 36.910156 L 449.042969 39.34375 L 448.855469 22.507812 L 468.851562 22.289062 L 469.128906 39.261719 " fill-opacity="1" fill-rule="nonzero"/></g></g><g clip-path="url(#7d3b310f6f)"><g clip-path="url(#fb04940bdf)"><path fill="#955b50" d="M 469.121094 38.988281 C 469.191406 45.117188 464.75 50.132812 459.203125 50.195312 C 453.65625 50.257812 449.105469 45.339844 449.039062 39.207031 C 448.972656 33.078125 453.410156 28.0625 458.960938 28.003906 C 464.503906 27.941406 469.054688 32.859375 469.121094 38.988281 " fill-opacity="1" fill-rule="nonzero"/></g></g><g clip-path="url(#7d201dbcea)"><g clip-path="url(#272500b580)"><path fill="#ffffff" d="M 454.707031 45.101562 C 455.3125 45.757812 456.128906 46.234375 457.070312 46.414062 C 459.183594 46.804688 461.214844 45.582031 461.90625 43.621094 L 454.707031 45.101562 " fill-opacity="1" fill-rule="nonzero"/></g></g><path fill="#000000" d="M 459.878906 8.132812 C 450.417969 8.132812 441.40625 11.5625 434.289062 17.90625 C 426.605469 24.753906 422.054688 34.179688 421.46875 44.453125 C 420.253906 65.65625 436.523438 83.894531 457.730469 85.109375 C 478.945312 86.3125 497.179688 70.058594 498.390625 48.855469 L 498.933594 48.882812 L 498.390625 48.855469 C 499.609375 27.652344 483.335938 9.414062 462.128906 8.199219 C 461.378906 8.15625 460.628906 8.132812 459.878906 8.132812 Z M 459.953125 86.257812 C 459.195312 86.257812 458.433594 86.234375 457.667969 86.1875 C 435.863281 84.945312 419.140625 66.195312 420.386719 44.390625 C 420.992188 33.832031 425.671875 24.140625 433.566406 17.097656 C 441.464844 10.058594 451.632812 6.511719 462.191406 7.117188 C 484 8.367188 500.722656 27.117188 499.476562 48.917969 C 498.269531 69.949219 480.769531 86.257812 459.953125 86.257812 " fill-opacity="1" fill-rule="nonzero"/><path fill="#000000" d="M 507.628906 156.898438 C 507.660156 182.550781 486.878906 203.375 461.21875 203.402344 C 435.554688 203.425781 414.734375 182.652344 414.703125 156.996094 C 414.679688 131.339844 435.457031 110.519531 461.121094 110.492188 C 486.777344 110.464844 507.605469 131.242188 507.628906 156.898438 " fill-opacity="1" fill-rule="nonzero"/><path fill="#ffffff" d="M 506.519531 154.898438 C 506.550781 180.550781 485.769531 201.371094 460.109375 201.402344 C 434.449219 201.425781 413.621094 180.652344 413.597656 154.992188 C 413.566406 129.339844 434.347656 108.519531 460.007812 108.492188 C 485.667969 108.464844 506.492188 129.238281 506.519531 154.898438 " fill-opacity="1" fill-rule="nonzero"/><path fill="#ffffff" d="M 460.058594 108.761719 C 460.042969 108.761719 460.027344 108.761719 460.007812 108.761719 C 447.671875 108.773438 436.078125 113.589844 427.359375 122.324219 C 418.644531 131.054688 413.851562 142.660156 413.867188 154.996094 C 413.878906 167.328125 418.695312 178.921875 427.429688 187.632812 C 436.152344 196.339844 447.738281 201.128906 460.054688 201.128906 C 460.074219 201.128906 460.09375 201.128906 460.109375 201.128906 C 472.449219 201.113281 484.039062 196.300781 492.757812 187.566406 C 501.46875 178.835938 506.265625 167.230469 506.25 154.894531 C 506.238281 142.5625 501.421875 130.964844 492.6875 122.25 C 483.964844 113.550781 472.378906 108.761719 460.058594 108.761719 Z M 460.054688 201.667969 C 447.589844 201.667969 435.871094 196.824219 427.046875 188.019531 C 418.210938 179.203125 413.335938 167.472656 413.324219 154.996094 C 413.3125 142.511719 418.160156 130.773438 426.980469 121.941406 C 435.792969 113.105469 447.523438 108.234375 460.007812 108.21875 C 460.027344 108.21875 460.042969 108.21875 460.058594 108.21875 C 472.523438 108.21875 484.246094 113.066406 493.070312 121.871094 C 501.90625 130.6875 506.78125 142.414062 506.792969 154.894531 C 506.804688 167.375 501.957031 179.113281 493.136719 187.949219 C 484.324219 196.78125 472.59375 201.65625 460.109375 201.667969 C 460.09375 201.667969 460.074219 201.667969 460.054688 201.667969 " fill-opacity="1" fill-rule="nonzero"/><g clip-path="url(#d6e739c131)"><g clip-path="url(#80169dc714)"><path fill="#4ada85" d="M 459.757812 166.160156 L 463.425781 166.15625 C 466.878906 166.152344 470.148438 162.953125 473.402344 163.902344 C 479.6875 165.730469 485.417969 169.265625 489.921875 174.195312 L 515.832031 202.582031 L 407.167969 202.695312 L 433.023438 174.253906 C 437.53125 169.289062 443.292969 165.738281 449.609375 163.902344 C 452.832031 162.964844 456.335938 166.164062 459.757812 166.160156 " fill-opacity="1" fill-rule="nonzero"/></g></g><g clip-path="url(#f53e8bc87d)"><g clip-path="url(#9e0d523112)"><path fill="#fda4ff" d="M 473.398438 163.914062 C 470.148438 162.964844 466.75 162.460938 463.292969 162.464844 L 459.625 162.464844 C 456.203125 162.46875 452.839844 162.972656 449.617188 163.910156 C 451.410156 168.753906 456.054688 172.214844 461.527344 172.207031 C 466.984375 172.203125 471.613281 168.746094 473.398438 163.914062 " fill-opacity="1" fill-rule="nonzero"/></g></g><g clip-path="url(#d6234b348d)"><g clip-path="url(#9eeb4c2104)"><path fill="#fda4ff" d="M 467.628906 164.46875 L 455.398438 164.480469 L 455.378906 146.621094 L 467.609375 146.605469 L 467.628906 164.46875 " fill-opacity="1" fill-rule="nonzero"/></g></g><g clip-path="url(#b6fc86560d)"><g clip-path="url(#26a3e227b9)"><path fill="#000000" d="M 467.613281 148.125 L 455.382812 148.136719 L 455.386719 153.667969 C 456.195312 154.949219 458.332031 157.832031 462.273438 159.121094 C 464.390625 159.816406 466.289062 159.808594 467.625 159.660156 L 467.613281 148.125 " fill-opacity="1" fill-rule="nonzero"/></g></g><g clip-path="url(#69523c8b44)"><g clip-path="url(#725ea88b74)"><path fill="#000000" d="M 486.953125 148.550781 C 486.496094 132.246094 474.390625 119.1875 459.527344 119.203125 C 444.664062 119.222656 432.589844 132.308594 432.167969 148.613281 L 486.953125 148.550781 " fill-opacity="1" fill-rule="nonzero"/></g></g><g clip-path="url(#1ba3c7d90c)"><g clip-path="url(#244d771c63)"><path fill="#4ada85" d="M 446.03125 143.964844 C 446.03125 143.964844 446.03125 143.964844 446.027344 143.964844 C 444.726562 143.96875 443.5 144.472656 442.578125 145.398438 C 441.660156 146.316406 441.152344 147.546875 441.15625 148.847656 C 441.15625 151.535156 443.34375 153.722656 446.03125 153.722656 C 446.035156 153.722656 446.039062 153.722656 446.039062 153.722656 C 448.730469 153.71875 450.914062 151.527344 450.914062 148.839844 C 450.910156 146.148438 448.71875 143.964844 446.03125 143.964844 Z M 446.03125 154.800781 C 444.445312 154.800781 442.949219 154.1875 441.824219 153.0625 C 440.695312 151.9375 440.074219 150.441406 440.074219 148.851562 C 440.070312 147.253906 440.691406 145.757812 441.8125 144.632812 C 442.9375 143.503906 444.4375 142.882812 446.027344 142.882812 C 446.03125 142.882812 446.03125 142.882812 446.03125 142.882812 C 447.625 142.882812 449.121094 143.5 450.246094 144.621094 C 451.371094 145.746094 451.992188 147.246094 451.996094 148.835938 C 452 152.121094 449.328125 154.800781 446.039062 154.800781 C 446.039062 154.800781 446.035156 154.800781 446.03125 154.800781 " fill-opacity="1" fill-rule="nonzero"/></g></g><g clip-path="url(#fd5c260a5d)"><g clip-path="url(#19ac0fec50)"><path fill="#4ada85" d="M 473.191406 143.9375 C 473.1875 143.9375 473.1875 143.9375 473.1875 143.9375 C 470.496094 143.941406 468.308594 146.132812 468.3125 148.820312 C 468.316406 151.507812 470.503906 153.691406 473.191406 153.691406 C 473.191406 153.691406 473.195312 153.691406 473.199219 153.691406 C 475.886719 153.6875 478.070312 151.5 478.070312 148.808594 C 478.066406 146.121094 475.878906 143.9375 473.191406 143.9375 Z M 473.191406 154.773438 C 471.597656 154.773438 470.105469 154.15625 468.980469 153.035156 C 467.851562 151.910156 467.230469 150.414062 467.226562 148.820312 C 467.226562 147.230469 467.847656 145.730469 468.96875 144.605469 C 470.09375 143.476562 471.59375 142.855469 473.183594 142.855469 C 473.1875 142.855469 473.1875 142.855469 473.191406 142.855469 C 474.78125 142.855469 476.277344 143.472656 477.402344 144.597656 C 478.527344 145.71875 479.152344 147.21875 479.152344 148.808594 C 479.15625 150.398438 478.535156 151.898438 477.410156 153.023438 C 476.285156 154.152344 474.789062 154.773438 473.199219 154.773438 C 473.195312 154.773438 473.195312 154.773438 473.191406 154.773438 " fill-opacity="1" fill-rule="nonzero"/></g></g><g clip-path="url(#78f4ed792c)"><g clip-path="url(#30ab530118)"><path fill="#fda4ff" d="M 470.367188 142.636719 C 470.371094 149.230469 465.539062 154.585938 459.570312 154.589844 C 453.597656 154.597656 448.753906 149.253906 448.75 142.660156 C 448.742188 136.0625 453.574219 130.710938 459.542969 130.703125 C 465.515625 130.695312 470.359375 136.039062 470.367188 142.636719 " fill-opacity="1" fill-rule="nonzero"/></g></g><g clip-path="url(#ba0b01ea1f)"><g clip-path="url(#70b5286e6c)"><path fill="#ffffff" d="M 454.785156 149.0625 C 455.429688 149.777344 456.296875 150.300781 457.3125 150.5 C 459.582031 150.941406 461.78125 149.648438 462.546875 147.546875 L 454.785156 149.0625 " fill-opacity="1" fill-rule="nonzero"/></g></g><g clip-path="url(#422c73e24d)"><g clip-path="url(#32641d537d)"><path fill="#000000" d="M 472.492188 140.054688 C 472.285156 132.648438 466.785156 126.714844 460.035156 126.726562 C 453.289062 126.730469 447.804688 132.671875 447.609375 140.078125 L 472.492188 140.054688 " fill-opacity="1" fill-rule="nonzero"/></g></g><path fill="#000000" d="M 460.058594 109.035156 C 460.039062 109.035156 460.027344 109.035156 460.007812 109.035156 C 447.742188 109.046875 436.214844 113.835938 427.550781 122.515625 C 418.886719 131.195312 414.125 142.730469 414.132812 154.992188 C 414.148438 167.257812 418.9375 178.78125 427.617188 187.449219 C 436.289062 196.097656 447.808594 200.859375 460.054688 200.859375 C 460.074219 200.859375 460.089844 200.859375 460.109375 200.859375 C 472.371094 200.84375 483.898438 196.058594 492.5625 187.375 C 501.230469 178.695312 505.992188 167.160156 505.980469 154.894531 C 505.964844 142.632812 501.179688 131.109375 492.496094 122.449219 C 483.824219 113.796875 472.304688 109.035156 460.058594 109.035156 Z M 460.054688 201.941406 C 447.519531 201.941406 435.730469 197.066406 426.855469 188.210938 C 417.96875 179.347656 413.066406 167.546875 413.050781 154.996094 C 413.039062 142.441406 417.914062 130.636719 426.78125 121.75 C 435.652344 112.867188 447.449219 107.960938 460.007812 107.949219 C 460.023438 107.949219 460.039062 107.949219 460.058594 107.949219 C 472.59375 107.949219 484.382812 112.824219 493.257812 121.683594 C 502.144531 130.546875 507.050781 142.339844 507.0625 154.894531 C 507.074219 167.449219 502.199219 179.253906 493.332031 188.140625 C 484.460938 197.027344 472.664062 201.925781 460.109375 201.941406 C 460.089844 201.941406 460.074219 201.941406 460.054688 201.941406 " fill-opacity="1" fill-rule="nonzero"/><path fill="#000000" d="M 411.820312 218.445312 C 410.6875 238.273438 393.683594 253.429688 373.851562 252.296875 C 354.019531 251.160156 338.859375 234.164062 339.992188 214.335938 C 341.128906 194.503906 358.125 179.347656 377.964844 180.484375 C 397.796875 181.617188 412.957031 198.609375 411.820312 218.445312 " fill-opacity="1" fill-rule="nonzero"/><path fill="#ffffff" d="M 375.144531 178.742188 C 356.386719 178.742188 340.613281 193.4375 339.527344 212.398438 C 338.402344 232.046875 353.476562 248.949219 373.128906 250.074219 C 392.777344 251.195312 409.691406 236.125 410.816406 216.476562 L 411.085938 216.492188 L 410.816406 216.476562 C 411.359375 206.957031 408.160156 197.796875 401.816406 190.679688 C 395.46875 183.566406 386.730469 179.34375 377.210938 178.800781 C 376.519531 178.761719 375.832031 178.742188 375.144531 178.742188 Z M 375.191406 250.675781 C 374.496094 250.675781 373.800781 250.652344 373.097656 250.617188 C 353.148438 249.472656 337.84375 232.316406 338.988281 212.367188 C 340.128906 192.417969 357.285156 177.125 377.242188 178.261719 C 386.90625 178.816406 395.777344 183.097656 402.21875 190.320312 C 408.664062 197.542969 411.90625 206.84375 411.355469 216.507812 C 410.253906 235.753906 394.238281 250.675781 375.191406 250.675781 " fill-opacity="1" fill-rule="nonzero"/><path fill="#ffffff" d="M 411.085938 216.492188 C 409.949219 236.320312 392.953125 251.476562 373.117188 250.339844 C 353.28125 249.210938 338.121094 232.210938 339.257812 212.382812 C 340.390625 192.550781 357.390625 177.398438 377.226562 178.53125 C 397.058594 179.667969 412.21875 196.660156 411.085938 216.492188 " fill-opacity="1" fill-rule="nonzero"/><g clip-path="url(#534e8d2da6)"><g clip-path="url(#e36f124869)"><path fill="#000000" d="M 360.117188 205.070312 C 360.117188 213.371094 366.988281 220.097656 375.464844 220.097656 C 383.941406 220.097656 390.8125 213.371094 390.8125 205.070312 C 390.8125 196.765625 383.941406 190.039062 375.464844 190.039062 C 366.988281 190.039062 360.117188 196.765625 360.117188 205.070312 " fill-opacity="1" fill-rule="nonzero"/></g></g><g clip-path="url(#40ab2af936)"><g clip-path="url(#2606e33b79)"><path fill="#fda4ff" d="M 367.941406 235.234375 L 379.78125 235.234375 L 379.78125 217.890625 L 367.941406 217.890625 L 367.941406 235.234375 " fill-opacity="1" fill-rule="nonzero"/></g></g><g clip-path="url(#c6346a0e9e)"><g clip-path="url(#ce6881c093)"><path fill="#000000" d="M 367.941406 222.378906 L 367.941406 217.890625 L 379.78125 217.890625 L 379.78125 227.796875 C 378.710938 228.011719 376.582031 228.28125 374.136719 227.472656 C 370.308594 226.210938 368.429688 223.21875 367.941406 222.378906 " fill-opacity="1" fill-rule="nonzero"/></g></g><g clip-path="url(#00b6321523)"><g clip-path="url(#78eae98ce7)"><path fill="#fda4ff" d="M 365.941406 214.394531 C 365.941406 220.207031 370.207031 224.917969 375.464844 224.917969 C 380.726562 224.917969 384.992188 220.207031 384.992188 214.394531 C 384.992188 208.582031 380.726562 203.867188 375.464844 203.867188 C 370.207031 203.867188 365.941406 208.582031 365.941406 214.394531 " fill-opacity="1" fill-rule="nonzero"/></g></g><g clip-path="url(#a2a6b07b3d)"><g clip-path="url(#e708b10188)"><path fill="#ffffff" d="M 371.390625 218.960938 C 372.308594 219.804688 373.496094 220.375 374.832031 220.507812 C 377.816406 220.8125 380.503906 218.878906 381.242188 216.066406 L 371.390625 218.960938 " fill-opacity="1" fill-rule="nonzero"/></g></g><g clip-path="url(#8402ff14b0)"><g clip-path="url(#d38bcb7d4f)"><path fill="#8c7bff" d="M 420 267.839844 L 420 252.878906 L 408.308594 232.660156 L 379.375 232.660156 L 375.277344 235.671875 L 368.355469 232.660156 L 348.210938 232.660156 C 335.015625 232.660156 324.320312 243.355469 324.320312 256.546875 L 324.320312 259.136719 L 333.011719 267.839844 L 420 267.839844 " fill-opacity="1" fill-rule="nonzero"/></g></g><g clip-path="url(#6897b87b89)"><g clip-path="url(#8a73bde3b3)"><path fill="#8c7bff" d="M 420 232.660156 L 389.28125 232.660156 L 389.28125 260.699219 L 420 260.691406 L 420 232.660156 " fill-opacity="1" fill-rule="nonzero"/></g></g><g clip-path="url(#27f2a17923)"><g clip-path="url(#84d75f0b7a)"><path fill="#8c7bff" d="M 359.300781 267.839844 L 359.300781 232.660156 L 348.210938 232.660156 C 335.015625 232.660156 324.320312 243.355469 324.320312 256.546875 L 324.320312 267.839844 L 359.300781 267.839844 " fill-opacity="1" fill-rule="nonzero"/></g></g><g clip-path="url(#55e23d161e)"><g clip-path="url(#c4e874bce9)"><path fill="#fda4ff" d="M 390.28125 232.566406 L 357.921875 232.566406 C 361.789062 237.6875 367.601562 240.941406 374.101562 240.941406 C 380.605469 240.941406 386.421875 237.6875 390.28125 232.566406 " fill-opacity="1" fill-rule="nonzero"/></g></g><g clip-path="url(#3387f6612a)"><g clip-path="url(#be372c2fdd)"><path fill="#000000" d="M 324.363281 256.714844 C 324.359375 256.714844 324.359375 256.714844 324.359375 256.714844 C 324.058594 256.714844 323.820312 256.472656 323.820312 256.171875 C 323.84375 246.4375 330.210938 237.171875 339.300781 233.636719 C 345.480469 231.574219 351.964844 231.8125 358.238281 232.042969 C 361.347656 232.160156 364.558594 232.277344 367.71875 232.121094 C 368.007812 232.097656 368.273438 232.335938 368.285156 232.632812 C 368.300781 232.933594 368.070312 233.1875 367.773438 233.203125 C 364.5625 233.359375 361.324219 233.242188 358.195312 233.125 C 351.738281 232.890625 345.636719 232.667969 339.667969 234.65625 C 331.007812 238.023438 324.925781 246.875 324.902344 256.175781 C 324.902344 256.472656 324.660156 256.714844 324.363281 256.714844 " fill-opacity="1" fill-rule="nonzero"/></g></g><g clip-path="url(#1981fca3bc)"><g clip-path="url(#5b0f2ea61c)"><path fill="#000000" d="M 403.46875 233.25 C 395.527344 233.25 387.660156 233.230469 380.007812 233.199219 C 379.707031 233.199219 379.464844 232.953125 379.464844 232.660156 C 379.464844 232.359375 379.707031 232.117188 380.007812 232.117188 C 389.21875 232.15625 398.738281 232.171875 408.3125 232.164062 C 408.613281 232.164062 408.855469 232.402344 408.855469 232.703125 C 408.855469 233 408.613281 233.246094 408.3125 233.246094 C 406.699219 233.246094 405.082031 233.25 403.46875 233.25 " fill-opacity="1" fill-rule="nonzero"/></g></g><path fill="#000000" d="M 375.148438 179.011719 C 356.53125 179.011719 340.875 193.597656 339.796875 212.414062 C 338.683594 231.910156 353.640625 248.6875 373.148438 249.800781 C 392.660156 250.921875 409.429688 235.960938 410.542969 216.460938 L 411.085938 216.488281 L 410.542969 216.460938 C 411.085938 207.011719 407.914062 197.921875 401.617188 190.859375 C 395.316406 183.796875 386.644531 179.609375 377.195312 179.070312 C 376.507812 179.03125 375.828125 179.011719 375.148438 179.011719 Z M 375.195312 250.945312 C 374.496094 250.945312 373.789062 250.921875 373.085938 250.886719 C 352.984375 249.734375 337.566406 232.449219 338.714844 212.351562 C 339.867188 192.253906 357.136719 176.839844 377.257812 177.992188 C 386.996094 178.546875 395.933594 182.863281 402.425781 190.140625 C 408.914062 197.417969 412.183594 206.785156 411.625 216.523438 C 410.515625 235.914062 394.382812 250.945312 375.195312 250.945312 " fill-opacity="1" fill-rule="nonzero"/></svg>