<svg xmlns="http://www.w3.org/2000/svg" xmlns:xlink="http://www.w3.org/1999/xlink" width="800" zoomAndPan="magnify" viewBox="0 0 600 449.999984" height="600" preserveAspectRatio="xMidYMid meet" version="1.0"><defs><clipPath id="9096bb13bd"><path d="M 192 200 L 529.242188 200 L 529.242188 214 L 192 214 Z M 192 200 " clip-rule="nonzero"/></clipPath><clipPath id="957ccbfdd3"><path d="M 70.992188 200 L 193 200 L 193 214 L 70.992188 214 Z M 70.992188 200 " clip-rule="nonzero"/></clipPath><clipPath id="116aef3506"><path d="M 407 437 L 529.242188 437 L 529.242188 450 L 407 450 Z M 407 437 " clip-rule="nonzero"/></clipPath><clipPath id="1c6d3befb9"><path d="M 517 213 L 529.242188 213 L 529.242188 450 L 517 450 Z M 517 213 " clip-rule="nonzero"/></clipPath><clipPath id="90af69740c"><path d="M 70.992188 213 L 83 213 L 83 446 L 70.992188 446 Z M 70.992188 213 " clip-rule="nonzero"/></clipPath><clipPath id="0166d8953d"><path d="M 70.992188 437 L 193 437 L 193 450 L 70.992188 450 Z M 70.992188 437 " clip-rule="nonzero"/></clipPath><clipPath id="08197dd22b"><path d="M 213 48 L 229 48 L 229 82 L 213 82 Z M 213 48 " clip-rule="nonzero"/></clipPath><clipPath id="7da867e91a"><path d="M 207 102 L 244 102 L 244 108.75 L 207 108.75 Z M 207 102 " clip-rule="nonzero"/></clipPath><clipPath id="a89476a672"><path d="M 297 166 L 317 166 L 317 171 L 297 171 Z M 297 166 " clip-rule="nonzero"/></clipPath><clipPath id="694a3bc0a5"><path d="M 278.238281 125.800781 L 329.058594 121.515625 L 333.722656 176.816406 L 282.90625 181.105469 Z M 278.238281 125.800781 " clip-rule="nonzero"/></clipPath><clipPath id="410ecc9067"><path d="M 278.238281 125.800781 L 329.058594 121.515625 L 333.722656 176.816406 L 282.90625 181.105469 Z M 278.238281 125.800781 " clip-rule="nonzero"/></clipPath><clipPath id="97812fc28c"><path d="M 278.238281 125.800781 L 329.058594 121.515625 L 333.722656 176.816406 L 282.90625 181.105469 Z M 278.238281 125.800781 " clip-rule="nonzero"/></clipPath><clipPath id="be746b6c9b"><path d="M 295 160 L 317 160 L 317 165 L 295 165 Z M 295 160 " clip-rule="nonzero"/></clipPath><clipPath id="f2408f54ac"><path d="M 278.238281 125.800781 L 329.058594 121.515625 L 333.722656 176.816406 L 282.90625 181.105469 Z M 278.238281 125.800781 " clip-rule="nonzero"/></clipPath><clipPath id="f8167f70a8"><path d="M 278.238281 125.800781 L 329.058594 121.515625 L 333.722656 176.816406 L 282.90625 181.105469 Z M 278.238281 125.800781 " clip-rule="nonzero"/></clipPath><clipPath id="851b520e4a"><path d="M 278.238281 125.800781 L 329.058594 121.515625 L 333.722656 176.816406 L 282.90625 181.105469 Z M 278.238281 125.800781 " clip-rule="nonzero"/></clipPath><clipPath id="7d66c967ec"><path d="M 305 133 L 318 133 L 318 156 L 305 156 Z M 305 133 " clip-rule="nonzero"/></clipPath><clipPath id="bc002dafa8"><path d="M 278.238281 125.800781 L 329.058594 121.515625 L 333.722656 176.816406 L 282.90625 181.105469 Z M 278.238281 125.800781 " clip-rule="nonzero"/></clipPath><clipPath id="2b9a25c7e6"><path d="M 278.238281 125.800781 L 329.058594 121.515625 L 333.722656 176.816406 L 282.90625 181.105469 Z M 278.238281 125.800781 " clip-rule="nonzero"/></clipPath><clipPath id="56be158788"><path d="M 278.238281 125.800781 L 329.058594 121.515625 L 333.722656 176.816406 L 282.90625 181.105469 Z M 278.238281 125.800781 " clip-rule="nonzero"/></clipPath><clipPath id="3dc193a8ef"><path d="M 287 169 L 326 169 L 326 177 L 287 177 Z M 287 169 " clip-rule="nonzero"/></clipPath><clipPath id="f62b334200"><path d="M 278.238281 125.800781 L 329.058594 121.515625 L 333.722656 176.816406 L 282.90625 181.105469 Z M 278.238281 125.800781 " clip-rule="nonzero"/></clipPath><clipPath id="9c2ab1ff88"><path d="M 278.238281 125.800781 L 329.058594 121.515625 L 333.722656 176.816406 L 282.90625 181.105469 Z M 278.238281 125.800781 " clip-rule="nonzero"/></clipPath><clipPath id="46ba06f5d7"><path d="M 278.238281 125.800781 L 329.058594 121.515625 L 333.722656 176.816406 L 282.90625 181.105469 Z M 278.238281 125.800781 " clip-rule="nonzero"/></clipPath><clipPath id="1030cd65f3"><path d="M 290 154 L 319 154 L 319 160 L 290 160 Z M 290 154 " clip-rule="nonzero"/></clipPath><clipPath id="1637df991b"><path d="M 278.238281 125.800781 L 329.058594 121.515625 L 333.722656 176.816406 L 282.90625 181.105469 Z M 278.238281 125.800781 " clip-rule="nonzero"/></clipPath><clipPath id="9de6a9aa13"><path d="M 278.238281 125.800781 L 329.058594 121.515625 L 333.722656 176.816406 L 282.90625 181.105469 Z M 278.238281 125.800781 " clip-rule="nonzero"/></clipPath><clipPath id="88c088713a"><path d="M 278.238281 125.800781 L 329.058594 121.515625 L 333.722656 176.816406 L 282.90625 181.105469 Z M 278.238281 125.800781 " clip-rule="nonzero"/></clipPath><clipPath id="4a03e2f37b"><path d="M 318 151 L 327 151 L 327 164 L 318 164 Z M 318 151 " clip-rule="nonzero"/></clipPath><clipPath id="8ae54b49ac"><path d="M 278.238281 125.800781 L 329.058594 121.515625 L 333.722656 176.816406 L 282.90625 181.105469 Z M 278.238281 125.800781 " clip-rule="nonzero"/></clipPath><clipPath id="06d3fdbc91"><path d="M 278.238281 125.800781 L 329.058594 121.515625 L 333.722656 176.816406 L 282.90625 181.105469 Z M 278.238281 125.800781 " clip-rule="nonzero"/></clipPath><clipPath id="510e4239fe"><path d="M 278.238281 125.800781 L 329.058594 121.515625 L 333.722656 176.816406 L 282.90625 181.105469 Z M 278.238281 125.800781 " clip-rule="nonzero"/></clipPath><clipPath id="d441820f23"><path d="M 298 123 L 312 123 L 312 154 L 298 154 Z M 298 123 " clip-rule="nonzero"/></clipPath><clipPath id="433bcaf0c7"><path d="M 278.238281 125.800781 L 329.058594 121.515625 L 333.722656 176.816406 L 282.90625 181.105469 Z M 278.238281 125.800781 " clip-rule="nonzero"/></clipPath><clipPath id="d8be0bc7cb"><path d="M 278.238281 125.800781 L 329.058594 121.515625 L 333.722656 176.816406 L 282.90625 181.105469 Z M 278.238281 125.800781 " clip-rule="nonzero"/></clipPath><clipPath id="698cd5f5d7"><path d="M 278.238281 125.800781 L 329.058594 121.515625 L 333.722656 176.816406 L 282.90625 181.105469 Z M 278.238281 125.800781 " clip-rule="nonzero"/></clipPath><clipPath id="357d770088"><path d="M 295 171 L 329 171 L 329 179 L 295 179 Z M 295 171 " clip-rule="nonzero"/></clipPath><clipPath id="71278d6d48"><path d="M 278.238281 125.800781 L 329.058594 121.515625 L 333.722656 176.816406 L 282.90625 181.105469 Z M 278.238281 125.800781 " clip-rule="nonzero"/></clipPath><clipPath id="a024db4df4"><path d="M 278.238281 125.800781 L 329.058594 121.515625 L 333.722656 176.816406 L 282.90625 181.105469 Z M 278.238281 125.800781 " clip-rule="nonzero"/></clipPath><clipPath id="97a5235bae"><path d="M 278.238281 125.800781 L 329.058594 121.515625 L 333.722656 176.816406 L 282.90625 181.105469 Z M 278.238281 125.800781 " clip-rule="nonzero"/></clipPath></defs><path fill="#b1d6e5" d="M 266.710938 166.070312 L 79.964844 166.070312 L 79.964844 31.046875 L 266.710938 31.046875 L 266.710938 166.070312 " fill-opacity="1" fill-rule="nonzero"/><path fill="#15151c" d="M 266.710938 154.867188 L 79.964844 154.867188 L 79.964844 35.949219 L 266.710938 35.949219 L 266.710938 154.867188 " fill-opacity="1" fill-rule="nonzero"/><path fill="#15151e" d="M 261.234375 151.117188 L 85.441406 151.117188 L 85.441406 47.339844 L 261.234375 47.339844 L 261.234375 151.117188 " fill-opacity="1" fill-rule="nonzero"/><path fill="#ffffff" d="M 94.375 47.339844 L 94.375 151.117188 L 95.800781 151.117188 L 95.800781 47.339844 " fill-opacity="1" fill-rule="nonzero"/><path fill="#323660" d="M 261.234375 47.296875 L 85.441406 47.296875 L 85.441406 38.738281 L 261.234375 38.738281 L 261.234375 47.296875 " fill-opacity="1" fill-rule="nonzero"/><path fill="#ed3947" d="M 240.886719 43.019531 C 240.886719 44.621094 239.582031 45.929688 237.980469 45.929688 C 236.367188 45.929688 235.070312 44.621094 235.070312 43.019531 C 235.070312 41.414062 236.367188 40.113281 237.980469 40.113281 C 239.582031 40.113281 240.886719 41.414062 240.886719 43.019531 " fill-opacity="1" fill-rule="nonzero"/><path fill="#80cc28" d="M 248.542969 43.019531 C 248.542969 44.621094 247.242188 45.929688 245.636719 45.929688 C 244.03125 45.929688 242.730469 44.621094 242.730469 43.019531 C 242.730469 41.414062 244.03125 40.113281 245.636719 40.113281 C 247.242188 40.113281 248.542969 41.414062 248.542969 43.019531 " fill-opacity="1" fill-rule="nonzero"/><path fill="#ebb72e" d="M 256.136719 43.019531 C 256.136719 44.621094 254.832031 45.929688 253.226562 45.929688 C 251.621094 45.929688 250.316406 44.621094 250.316406 43.019531 C 250.316406 41.414062 251.621094 40.113281 253.226562 40.113281 C 254.832031 40.113281 256.136719 41.414062 256.136719 43.019531 " fill-opacity="1" fill-rule="nonzero"/><path fill="#ffffff" d="M 92.816406 51.3125 L 87.714844 51.3125 L 87.714844 49.753906 L 92.816406 49.753906 L 92.816406 51.3125 " fill-opacity="1" fill-rule="nonzero"/><path fill="#ffffff" d="M 92.816406 56.414062 L 87.714844 56.414062 L 87.714844 54.855469 L 92.816406 54.855469 L 92.816406 56.414062 " fill-opacity="1" fill-rule="nonzero"/><path fill="#ffffff" d="M 92.816406 61.515625 L 87.714844 61.515625 L 87.714844 59.957031 L 92.816406 59.957031 L 92.816406 61.515625 " fill-opacity="1" fill-rule="nonzero"/><path fill="#ffffff" d="M 92.816406 66.625 L 87.714844 66.625 L 87.714844 65.066406 L 92.816406 65.066406 L 92.816406 66.625 " fill-opacity="1" fill-rule="nonzero"/><path fill="#ffffff" d="M 92.816406 71.726562 L 87.714844 71.726562 L 87.714844 70.167969 L 92.816406 70.167969 L 92.816406 71.726562 " fill-opacity="1" fill-rule="nonzero"/><path fill="#ffffff" d="M 92.816406 76.832031 L 87.714844 76.832031 L 87.714844 75.269531 L 92.816406 75.269531 L 92.816406 76.832031 " fill-opacity="1" fill-rule="nonzero"/><path fill="#ffffff" d="M 92.816406 81.933594 L 87.714844 81.933594 L 87.714844 80.375 L 92.816406 80.375 L 92.816406 81.933594 " fill-opacity="1" fill-rule="nonzero"/><path fill="#ffffff" d="M 92.816406 87.039062 L 87.714844 87.039062 L 87.714844 85.480469 L 92.816406 85.480469 L 92.816406 87.039062 " fill-opacity="1" fill-rule="nonzero"/><path fill="#ffffff" d="M 92.816406 92.140625 L 87.714844 92.140625 L 87.714844 90.582031 L 92.816406 90.582031 L 92.816406 92.140625 " fill-opacity="1" fill-rule="nonzero"/><path fill="#ffffff" d="M 92.816406 97.246094 L 87.714844 97.246094 L 87.714844 95.6875 L 92.816406 95.6875 L 92.816406 97.246094 " fill-opacity="1" fill-rule="nonzero"/><path fill="#ffffff" d="M 92.816406 102.347656 L 87.714844 102.347656 L 87.714844 100.789062 L 92.816406 100.789062 L 92.816406 102.347656 " fill-opacity="1" fill-rule="nonzero"/><path fill="#ffffff" d="M 92.816406 107.453125 L 87.714844 107.453125 L 87.714844 105.894531 L 92.816406 105.894531 L 92.816406 107.453125 " fill-opacity="1" fill-rule="nonzero"/><path fill="#ffffff" d="M 92.816406 112.558594 L 87.714844 112.558594 L 87.714844 111 L 92.816406 111 L 92.816406 112.558594 " fill-opacity="1" fill-rule="nonzero"/><path fill="#ffffff" d="M 92.816406 117.660156 L 87.714844 117.660156 L 87.714844 116.101562 L 92.816406 116.101562 L 92.816406 117.660156 " fill-opacity="1" fill-rule="nonzero"/><path fill="#ffffff" d="M 92.816406 122.765625 L 87.714844 122.765625 L 87.714844 121.203125 L 92.816406 121.203125 L 92.816406 122.765625 " fill-opacity="1" fill-rule="nonzero"/><path fill="#ffffff" d="M 92.816406 127.871094 L 87.714844 127.871094 L 87.714844 126.308594 L 92.816406 126.308594 L 92.816406 127.871094 " fill-opacity="1" fill-rule="nonzero"/><path fill="#ffffff" d="M 92.816406 132.972656 L 87.714844 132.972656 L 87.714844 131.414062 L 92.816406 131.414062 L 92.816406 132.972656 " fill-opacity="1" fill-rule="nonzero"/><path fill="#ffffff" d="M 92.816406 138.074219 L 87.714844 138.074219 L 87.714844 136.515625 L 92.816406 136.515625 L 92.816406 138.074219 " fill-opacity="1" fill-rule="nonzero"/><path fill="#ffffff" d="M 92.816406 143.183594 L 87.714844 143.183594 L 87.714844 141.621094 L 92.816406 141.621094 L 92.816406 143.183594 " fill-opacity="1" fill-rule="nonzero"/><path fill="#ffffff" d="M 92.816406 148.285156 L 87.714844 148.285156 L 87.714844 146.726562 L 92.816406 146.726562 L 92.816406 148.285156 " fill-opacity="1" fill-rule="nonzero"/><path fill="#ed3947" d="M 118.066406 51.3125 L 98.207031 51.3125 L 98.207031 49.753906 L 118.066406 49.753906 L 118.066406 51.3125 " fill-opacity="1" fill-rule="nonzero"/><path fill="#ed3947" d="M 138.710938 108.234375 L 118.855469 108.234375 L 118.855469 106.671875 L 138.710938 106.671875 L 138.710938 108.234375 " fill-opacity="1" fill-rule="nonzero"/><path fill="#ed3947" d="M 126.371094 102.347656 L 118.855469 102.347656 L 118.855469 100.789062 L 126.371094 100.789062 L 126.371094 102.347656 " fill-opacity="1" fill-rule="nonzero"/><path fill="#3bbec5" d="M 105.726562 56.414062 L 98.207031 56.414062 L 98.207031 54.855469 L 105.726562 54.855469 L 105.726562 56.414062 " fill-opacity="1" fill-rule="nonzero"/><path fill="#3bbec5" d="M 109.34375 61.515625 L 98.207031 61.515625 L 98.207031 59.957031 L 109.34375 59.957031 L 109.34375 61.515625 " fill-opacity="1" fill-rule="nonzero"/><path fill="#00adef" d="M 115.085938 61.515625 L 111.257812 61.515625 L 111.257812 59.957031 L 115.085938 59.957031 L 115.085938 61.515625 " fill-opacity="1" fill-rule="nonzero"/><path fill="#3bbec5" d="M 126.515625 112.558594 L 118.996094 112.558594 L 118.996094 111 L 126.515625 111 L 126.515625 112.558594 " fill-opacity="1" fill-rule="nonzero"/><path fill="#3bbec5" d="M 130.132812 117.660156 L 118.996094 117.660156 L 118.996094 116.101562 L 130.132812 116.101562 L 130.132812 117.660156 " fill-opacity="1" fill-rule="nonzero"/><path fill="#00adef" d="M 135.878906 117.660156 L 132.046875 117.660156 L 132.046875 116.101562 L 135.878906 116.101562 L 135.878906 117.660156 " fill-opacity="1" fill-rule="nonzero"/><path fill="#3bbec5" d="M 126.515625 139.851562 L 118.996094 139.851562 L 118.996094 138.289062 L 126.515625 138.289062 L 126.515625 139.851562 " fill-opacity="1" fill-rule="nonzero"/><path fill="#3bbec5" d="M 130.132812 144.949219 L 118.996094 144.949219 L 118.996094 143.390625 L 130.132812 143.390625 L 130.132812 144.949219 " fill-opacity="1" fill-rule="nonzero"/><path fill="#00adef" d="M 135.878906 144.949219 L 132.046875 144.949219 L 132.046875 143.390625 L 135.878906 143.390625 L 135.878906 144.949219 " fill-opacity="1" fill-rule="nonzero"/><path fill="#3bbec5" d="M 109.34375 87.039062 L 98.207031 87.039062 L 98.207031 85.480469 L 109.34375 85.480469 L 109.34375 87.039062 " fill-opacity="1" fill-rule="nonzero"/><path fill="#00adef" d="M 115.085938 87.039062 L 111.257812 87.039062 L 111.257812 85.480469 L 115.085938 85.480469 L 115.085938 87.039062 " fill-opacity="1" fill-rule="nonzero"/><path fill="#80cc28" d="M 126.011719 51.3125 L 120.902344 51.3125 L 120.902344 49.753906 L 126.011719 49.753906 L 126.011719 51.3125 " fill-opacity="1" fill-rule="nonzero"/><path fill="#80cc28" d="M 132.960938 93.703125 L 111.257812 93.703125 L 111.257812 92.140625 L 132.960938 92.140625 L 132.960938 93.703125 " fill-opacity="1" fill-rule="nonzero"/><path fill="#ffffff" d="M 133.597656 66.625 L 111.257812 66.625 L 111.257812 65.066406 L 133.597656 65.066406 L 133.597656 66.625 " fill-opacity="1" fill-rule="nonzero"/><path fill="#ffffff" d="M 177.21875 66.625 L 144.875 66.625 L 144.875 65.066406 L 177.21875 65.066406 L 177.21875 66.625 " fill-opacity="1" fill-rule="nonzero"/><path fill="#ffffff" d="M 141.46875 66.625 L 135.726562 66.625 L 135.726562 65.066406 L 141.46875 65.066406 L 141.46875 66.625 " fill-opacity="1" fill-rule="nonzero"/><path fill="#ffffff" d="M 138.492188 76.050781 L 116.152344 76.050781 L 116.152344 74.488281 L 138.492188 74.488281 L 138.492188 76.050781 " fill-opacity="1" fill-rule="nonzero"/><path fill="#ffffff" d="M 182.113281 76.050781 L 149.769531 76.050781 L 149.769531 74.488281 L 182.113281 74.488281 L 182.113281 76.050781 " fill-opacity="1" fill-rule="nonzero"/><path fill="#ffffff" d="M 146.363281 76.050781 L 140.621094 76.050781 L 140.621094 74.488281 L 146.363281 74.488281 L 146.363281 76.050781 " fill-opacity="1" fill-rule="nonzero"/><path fill="#ffffff" d="M 130.40625 69.386719 L 116.152344 69.386719 L 116.152344 70.949219 L 130.40625 70.949219 L 130.40625 69.386719 " fill-opacity="1" fill-rule="nonzero"/><path fill="#ffffff" d="M 132.960938 69.386719 L 132.960938 70.949219 L 138.492188 70.949219 L 138.492188 69.386719 L 132.960938 69.386719 " fill-opacity="1" fill-rule="nonzero"/><path fill="#ffffff" d="M 161.046875 70.949219 L 149.769531 70.949219 L 149.769531 69.386719 L 161.046875 69.386719 L 161.046875 70.949219 " fill-opacity="1" fill-rule="nonzero"/><path fill="#ffffff" d="M 146.363281 70.949219 L 140.621094 70.949219 L 140.621094 69.386719 L 146.363281 69.386719 L 146.363281 70.949219 " fill-opacity="1" fill-rule="nonzero"/><path fill="#ffffff" d="M 148.917969 81.933594 L 116.152344 81.933594 L 116.152344 80.375 L 148.917969 80.375 L 148.917969 81.933594 " fill-opacity="1" fill-rule="nonzero"/><path fill="#ffffff" d="M 175.941406 81.933594 L 150.832031 81.933594 L 150.832031 80.375 L 175.941406 80.375 L 175.941406 81.933594 " fill-opacity="1" fill-rule="nonzero"/><path fill="#ffffff" d="M 177.21875 134.957031 L 177.21875 136.515625 L 182.042969 136.515625 L 182.042969 134.957031 L 177.21875 134.957031 " fill-opacity="1" fill-rule="nonzero"/><path fill="#ffffff" d="M 148.632812 124.148438 L 134.378906 124.148438 L 134.378906 125.710938 L 148.632812 125.710938 L 148.632812 124.148438 " fill-opacity="1" fill-rule="nonzero"/><path fill="#ffffff" d="M 151.1875 124.148438 L 151.1875 125.710938 L 156.722656 125.710938 L 156.722656 124.148438 L 151.1875 124.148438 " fill-opacity="1" fill-rule="nonzero"/><path fill="#ffffff" d="M 179.273438 125.710938 L 167.996094 125.710938 L 167.996094 124.148438 L 179.273438 124.148438 L 179.273438 125.710938 " fill-opacity="1" fill-rule="nonzero"/><path fill="#ffffff" d="M 164.59375 125.710938 L 158.847656 125.710938 L 158.847656 124.148438 L 164.59375 124.148438 L 164.59375 125.710938 " fill-opacity="1" fill-rule="nonzero"/><path fill="#ffffff" d="M 153.386719 129.855469 L 134.378906 129.855469 L 134.378906 131.414062 L 153.386719 131.414062 L 153.386719 129.855469 " fill-opacity="1" fill-rule="nonzero"/><path fill="#ffffff" d="M 155.371094 129.855469 L 155.371094 131.414062 L 182.042969 131.414062 L 182.042969 129.855469 L 155.371094 129.855469 " fill-opacity="1" fill-rule="nonzero"/><path fill="#ffffff" d="M 142.605469 134.957031 L 134.378906 134.957031 L 134.378906 136.515625 L 142.605469 136.515625 L 142.605469 134.957031 " fill-opacity="1" fill-rule="nonzero"/><path fill="#ffffff" d="M 145.015625 134.957031 L 145.015625 136.515625 L 153.386719 136.515625 L 153.386719 134.957031 L 145.015625 134.957031 " fill-opacity="1" fill-rule="nonzero"/><path fill="#ffffff" d="M 175.371094 134.957031 L 155.371094 134.957031 L 155.371094 136.515625 L 175.371094 136.515625 L 175.371094 134.957031 " fill-opacity="1" fill-rule="nonzero"/><path fill="#6097af" d="M 189.324219 188.492188 L 143.25 188.492188 L 148.035156 166.066406 L 194.113281 166.066406 L 189.324219 188.492188 " fill-opacity="1" fill-rule="nonzero"/><path fill="#6097af" d="M 191.871094 200.152344 C 184.984375 199.207031 189.132812 188.492188 189.132812 188.492188 L 143.25 188.492188 C 143.25 188.492188 142.808594 190.75 142.457031 192.746094 C 141.847656 196.222656 141.027344 200.152344 145.988281 200.152344 L 191.871094 200.152344 " fill-opacity="1" fill-rule="nonzero"/><path fill="#88b8cc" d="M 193.277344 188.492188 L 147.199219 188.492188 L 151.988281 166.066406 L 198.066406 166.066406 L 193.277344 188.492188 " fill-opacity="1" fill-rule="nonzero"/><path fill="#88b8cc" d="M 195.824219 200.152344 C 190.875 199.046875 193.277344 188.492188 193.277344 188.492188 L 147.199219 188.492188 C 147.199219 188.492188 146.507812 191.921875 146.09375 194.324219 C 145.417969 198.25 146.488281 200.152344 149.941406 200.152344 L 195.824219 200.152344 " fill-opacity="1" fill-rule="nonzero"/><path fill="#6097af" d="M 211.355469 196.160156 L 145.222656 196.160156 L 146.742188 200.152344 L 211.355469 200.152344 C 212.292969 200.152344 213.050781 199.257812 213.050781 198.152344 C 213.050781 197.054688 212.292969 196.160156 211.355469 196.160156 " fill-opacity="1" fill-rule="nonzero"/><path fill="#9dd6ec" d="M 211.355469 196.160156 L 167.882812 196.160156 C 168.820312 196.160156 169.578125 197.054688 169.578125 198.152344 C 169.578125 199.257812 168.820312 200.152344 167.882812 200.152344 L 211.355469 200.152344 C 212.292969 200.152344 213.050781 199.257812 213.050781 198.152344 C 213.050781 197.054688 212.292969 196.160156 211.355469 196.160156 " fill-opacity="1" fill-rule="nonzero"/><g clip-path="url(#9096bb13bd)"><path fill="#c77d5d" d="M 192.425781 213.3125 L 529.253906 213.3125 L 529.253906 200.152344 L 192.425781 200.152344 L 192.425781 213.3125 " fill-opacity="1" fill-rule="nonzero"/></g><g clip-path="url(#957ccbfdd3)"><path fill="#a55c4a" d="M 192.425781 213.3125 L 70.988281 213.3125 L 70.988281 200.152344 L 192.425781 200.152344 L 192.425781 213.3125 " fill-opacity="1" fill-rule="nonzero"/></g><path fill="#1f2338" d="M 419.722656 449.808594 L 407.8125 449.808594 L 407.8125 213.3125 L 419.722656 213.3125 L 419.722656 449.808594 " fill-opacity="1" fill-rule="nonzero"/><g clip-path="url(#116aef3506)"><path fill="#1f2338" d="M 407.8125 449.808594 L 407.8125 437.675781 L 529.253906 437.675781 L 529.253906 449.808594 L 407.8125 449.808594 " fill-opacity="1" fill-rule="nonzero"/></g><g clip-path="url(#1c6d3befb9)"><path fill="#1f2338" d="M 529.253906 449.808594 L 517.339844 449.808594 L 517.339844 213.3125 L 529.253906 213.3125 L 529.253906 449.808594 " fill-opacity="1" fill-rule="nonzero"/></g><path fill="#f78e8c" d="M 436.578125 146.304688 C 436.578125 146.304688 437.425781 180.605469 442.644531 198.1875 C 442.644531 198.1875 444.894531 223 464.59375 212.832031 C 464.59375 212.832031 470.660156 206.734375 470.644531 148.136719 C 470.644531 148.136719 450.460938 129.617188 436.578125 146.304688 " fill-opacity="1" fill-rule="nonzero"/><path fill="#22377c" d="M 354.007812 194.359375 C 354.007812 197.554688 351.410156 200.152344 348.214844 200.152344 L 226.21875 200.152344 C 223.019531 200.152344 220.421875 197.554688 220.421875 194.359375 L 206.207031 116.964844 C 206.207031 113.765625 208.804688 111.171875 212.003906 111.171875 L 333.992188 111.171875 C 337.195312 111.171875 339.789062 113.765625 339.789062 116.964844 L 354.007812 194.359375 " fill-opacity="1" fill-rule="nonzero"/><path fill="#172657" d="M 347.214844 184.070312 C 347.214844 186.695312 345.082031 188.824219 342.457031 188.824219 L 229.425781 188.824219 C 226.800781 188.824219 224.671875 186.695312 224.671875 184.070312 L 213 120.546875 C 213 117.921875 215.128906 115.792969 217.757812 115.792969 L 330.789062 115.792969 C 333.414062 115.792969 335.542969 117.921875 335.542969 120.546875 L 347.214844 184.070312 " fill-opacity="1" fill-rule="nonzero"/><path fill="#111c41" d="M 219.964844 191.695312 L 416.550781 191.695312 C 416.550781 191.695312 422.183594 191.695312 424.378906 193.9375 L 429.9375 200.152344 L 221.894531 200.152344 L 219.964844 191.695312 " fill-opacity="1" fill-rule="nonzero"/><path fill="#2858b0" d="M 424.378906 193.9375 C 422.183594 191.695312 416.550781 191.695312 416.550781 191.695312 L 305.9375 191.695312 C 305.9375 191.695312 311.570312 191.695312 313.769531 193.9375 L 319.328125 200.152344 L 429.9375 200.152344 L 424.378906 193.9375 " fill-opacity="1" fill-rule="nonzero"/><path fill="#274495" d="M 392.316406 200.152344 L 362.136719 200.152344 L 359.753906 195.921875 L 389.9375 195.921875 L 392.316406 200.152344 " fill-opacity="1" fill-rule="nonzero"/><path fill="#15151e" d="M 344.394531 186.734375 L 229.128906 186.734375 L 216.828125 123.15625 L 332.09375 123.15625 L 344.394531 186.734375 " fill-opacity="1" fill-rule="nonzero"/><path fill="#ffffff" d="M 222.039062 123.292969 L 234.339844 186.871094 L 235.742188 186.601562 L 223.4375 123.019531 " fill-opacity="1" fill-rule="nonzero"/><path fill="#323660" d="M 332.085938 123.128906 L 216.824219 123.128906 L 215.808594 117.886719 L 331.074219 117.886719 L 332.085938 123.128906 " fill-opacity="1" fill-rule="nonzero"/><path fill="#ed3947" d="M 319.113281 120.507812 C 319.308594 121.488281 318.664062 122.285156 317.675781 122.285156 C 316.695312 122.285156 315.742188 121.488281 315.554688 120.507812 C 315.359375 119.523438 316.003906 118.722656 316.988281 118.722656 C 317.972656 118.722656 318.929688 119.523438 319.113281 120.507812 " fill-opacity="1" fill-rule="nonzero"/><path fill="#80cc28" d="M 323.808594 120.507812 C 323.996094 121.488281 323.355469 122.285156 322.371094 122.285156 C 321.386719 122.285156 320.4375 121.488281 320.25 120.507812 C 320.058594 119.523438 320.699219 118.722656 321.679688 118.722656 C 322.667969 118.722656 323.617188 119.523438 323.808594 120.507812 " fill-opacity="1" fill-rule="nonzero"/><path fill="#ebb72e" d="M 328.457031 120.507812 C 328.648438 121.488281 328.003906 122.285156 327.019531 122.285156 C 326.039062 122.285156 325.085938 121.488281 324.894531 120.507812 C 324.703125 119.523438 325.347656 118.722656 326.328125 118.722656 C 327.316406 118.722656 328.265625 119.523438 328.457031 120.507812 " fill-opacity="1" fill-rule="nonzero"/><path fill="#ffffff" d="M 221.820312 125.585938 L 218.691406 125.585938 L 218.503906 124.632812 L 221.632812 124.632812 L 221.820312 125.585938 " fill-opacity="1" fill-rule="nonzero"/><path fill="#ffffff" d="M 222.425781 128.714844 L 219.296875 128.714844 L 219.113281 127.757812 L 222.238281 127.757812 L 222.425781 128.714844 " fill-opacity="1" fill-rule="nonzero"/><path fill="#ffffff" d="M 223.027344 131.839844 L 219.902344 131.839844 L 219.714844 130.882812 L 222.84375 130.882812 L 223.027344 131.839844 " fill-opacity="1" fill-rule="nonzero"/><path fill="#ffffff" d="M 223.632812 134.96875 L 220.503906 134.96875 L 220.320312 134.015625 L 223.449219 134.015625 L 223.632812 134.96875 " fill-opacity="1" fill-rule="nonzero"/><path fill="#ffffff" d="M 224.238281 138.09375 L 221.109375 138.09375 L 220.925781 137.140625 L 224.054688 137.140625 L 224.238281 138.09375 " fill-opacity="1" fill-rule="nonzero"/><path fill="#ffffff" d="M 224.84375 141.222656 L 221.714844 141.222656 L 221.53125 140.265625 L 224.660156 140.265625 L 224.84375 141.222656 " fill-opacity="1" fill-rule="nonzero"/><path fill="#ffffff" d="M 225.449219 144.351562 L 222.320312 144.351562 L 222.136719 143.390625 L 225.261719 143.390625 L 225.449219 144.351562 " fill-opacity="1" fill-rule="nonzero"/><path fill="#ffffff" d="M 226.054688 147.476562 L 222.925781 147.476562 L 222.738281 146.519531 L 225.871094 146.519531 L 226.054688 147.476562 " fill-opacity="1" fill-rule="nonzero"/><path fill="#ffffff" d="M 226.660156 150.601562 L 223.53125 150.601562 L 223.347656 149.644531 L 226.472656 149.644531 L 226.660156 150.601562 " fill-opacity="1" fill-rule="nonzero"/><path fill="#ffffff" d="M 227.261719 153.726562 L 224.136719 153.726562 L 223.953125 152.773438 L 227.078125 152.773438 L 227.261719 153.726562 " fill-opacity="1" fill-rule="nonzero"/><path fill="#ffffff" d="M 227.871094 156.855469 L 224.742188 156.855469 L 224.554688 155.902344 L 227.683594 155.902344 L 227.871094 156.855469 " fill-opacity="1" fill-rule="nonzero"/><path fill="#ffffff" d="M 228.472656 159.980469 L 225.347656 159.980469 L 225.160156 159.027344 L 228.289062 159.027344 L 228.472656 159.980469 " fill-opacity="1" fill-rule="nonzero"/><path fill="#ffffff" d="M 229.078125 163.109375 L 225.953125 163.109375 L 225.765625 162.15625 L 228.894531 162.15625 L 229.078125 163.109375 " fill-opacity="1" fill-rule="nonzero"/><path fill="#ffffff" d="M 229.683594 166.238281 L 226.554688 166.238281 L 226.371094 165.28125 L 229.5 165.28125 L 229.683594 166.238281 " fill-opacity="1" fill-rule="nonzero"/><path fill="#ffffff" d="M 230.289062 169.363281 L 227.160156 169.363281 L 226.976562 168.410156 L 230.105469 168.410156 L 230.289062 169.363281 " fill-opacity="1" fill-rule="nonzero"/><path fill="#ffffff" d="M 230.894531 172.492188 L 227.765625 172.492188 L 227.582031 171.535156 L 230.710938 171.535156 L 230.894531 172.492188 " fill-opacity="1" fill-rule="nonzero"/><path fill="#ffffff" d="M 231.5 175.617188 L 228.371094 175.617188 L 228.1875 174.660156 L 231.316406 174.660156 L 231.5 175.617188 " fill-opacity="1" fill-rule="nonzero"/><path fill="#ffffff" d="M 232.105469 178.746094 L 228.976562 178.746094 L 228.792969 177.789062 L 231.917969 177.789062 L 232.105469 178.746094 " fill-opacity="1" fill-rule="nonzero"/><path fill="#ffffff" d="M 232.707031 181.871094 L 229.582031 181.871094 L 229.398438 180.914062 L 232.523438 180.914062 L 232.707031 181.871094 " fill-opacity="1" fill-rule="nonzero"/><path fill="#ffffff" d="M 233.316406 184.996094 L 230.1875 184.996094 L 230 184.042969 L 233.128906 184.042969 L 233.316406 184.996094 " fill-opacity="1" fill-rule="nonzero"/><path fill="#ed3947" d="M 237.289062 125.585938 L 225.117188 125.585938 L 224.933594 124.632812 L 237.101562 124.632812 L 237.289062 125.585938 " fill-opacity="1" fill-rule="nonzero"/><path fill="#ed3947" d="M 256.683594 160.460938 L 244.519531 160.460938 L 244.332031 159.503906 L 256.5 159.503906 L 256.683594 160.460938 " fill-opacity="1" fill-rule="nonzero"/><path fill="#ed3947" d="M 248.425781 156.855469 L 243.820312 156.855469 L 243.636719 155.902344 L 248.242188 155.902344 L 248.425781 156.855469 " fill-opacity="1" fill-rule="nonzero"/><path fill="#3bbec5" d="M 230.332031 128.714844 L 225.726562 128.714844 L 225.539062 127.757812 L 230.148438 127.757812 L 230.332031 128.714844 " fill-opacity="1" fill-rule="nonzero"/><path fill="#3bbec5" d="M 233.152344 131.839844 L 226.328125 131.839844 L 226.144531 130.882812 L 232.96875 130.882812 L 233.152344 131.839844 " fill-opacity="1" fill-rule="nonzero"/><path fill="#ffffff" d="M 248.617188 134.96875 L 234.929688 134.96875 L 234.746094 134.015625 L 248.433594 134.015625 L 248.617188 134.96875 " fill-opacity="1" fill-rule="nonzero"/><path fill="#ffffff" d="M 275.339844 134.96875 L 255.527344 134.96875 L 255.34375 134.015625 L 275.15625 134.015625 L 275.339844 134.96875 " fill-opacity="1" fill-rule="nonzero"/><path fill="#ffffff" d="M 253.441406 134.96875 L 249.921875 134.96875 L 249.738281 134.015625 L 253.253906 134.015625 L 253.441406 134.96875 " fill-opacity="1" fill-rule="nonzero"/><path fill="#ffffff" d="M 252.734375 140.746094 L 239.046875 140.746094 L 238.859375 139.789062 L 252.550781 139.789062 L 252.734375 140.746094 " fill-opacity="1" fill-rule="nonzero"/><path fill="#ffffff" d="M 279.457031 140.746094 L 259.644531 140.746094 L 259.457031 139.789062 L 279.269531 139.789062 L 279.457031 140.746094 " fill-opacity="1" fill-rule="nonzero"/><path fill="#ffffff" d="M 257.554688 140.746094 L 254.035156 140.746094 L 253.851562 139.789062 L 257.371094 139.789062 L 257.554688 140.746094 " fill-opacity="1" fill-rule="nonzero"/><path fill="#ffffff" d="M 246.992188 136.660156 L 238.257812 136.660156 L 238.441406 137.617188 L 247.175781 137.617188 L 246.992188 136.660156 " fill-opacity="1" fill-rule="nonzero"/><path fill="#ffffff" d="M 248.554688 136.660156 L 248.738281 137.617188 L 252.128906 137.617188 L 251.945312 136.660156 L 248.554688 136.660156 " fill-opacity="1" fill-rule="nonzero"/><path fill="#ffffff" d="M 265.945312 137.617188 L 259.039062 137.617188 L 258.851562 136.660156 L 265.761719 136.660156 L 265.945312 137.617188 " fill-opacity="1" fill-rule="nonzero"/><path fill="#ffffff" d="M 256.953125 137.617188 L 253.429688 137.617188 L 253.246094 136.660156 L 256.765625 136.660156 L 256.953125 137.617188 " fill-opacity="1" fill-rule="nonzero"/><path fill="#ffffff" d="M 264.648438 170.210938 L 255.917969 170.210938 L 256.101562 171.167969 L 264.835938 171.167969 L 264.648438 170.210938 " fill-opacity="1" fill-rule="nonzero"/><path fill="#ffffff" d="M 266.214844 170.210938 L 266.398438 171.167969 L 269.789062 171.167969 L 269.605469 170.210938 L 266.214844 170.210938 " fill-opacity="1" fill-rule="nonzero"/><path fill="#ffffff" d="M 283.605469 171.167969 L 276.699219 171.167969 L 276.511719 170.210938 L 283.421875 170.210938 L 283.605469 171.167969 " fill-opacity="1" fill-rule="nonzero"/><path fill="#ffffff" d="M 274.609375 171.167969 L 271.089844 171.167969 L 270.910156 170.210938 L 274.425781 170.210938 L 274.609375 171.167969 " fill-opacity="1" fill-rule="nonzero"/><path fill="#00adef" d="M 236.671875 131.839844 L 234.324219 131.839844 L 234.140625 130.882812 L 236.488281 130.882812 L 236.671875 131.839844 " fill-opacity="1" fill-rule="nonzero"/><path fill="#3bbec5" d="M 249.726562 163.109375 L 245.117188 163.109375 L 244.933594 162.15625 L 249.539062 162.15625 L 249.726562 163.109375 " fill-opacity="1" fill-rule="nonzero"/><path fill="#3bbec5" d="M 252.546875 166.238281 L 245.722656 166.238281 L 245.539062 165.28125 L 252.359375 165.28125 L 252.546875 166.238281 " fill-opacity="1" fill-rule="nonzero"/><path fill="#00adef" d="M 256.066406 166.238281 L 253.71875 166.238281 L 253.535156 165.28125 L 255.878906 165.28125 L 256.066406 166.238281 " fill-opacity="1" fill-rule="nonzero"/><path fill="#3bbec5" d="M 252.960938 179.832031 L 248.351562 179.832031 L 248.167969 178.875 L 252.773438 178.875 L 252.960938 179.832031 " fill-opacity="1" fill-rule="nonzero"/><path fill="#3bbec5" d="M 255.78125 182.957031 L 248.957031 182.957031 L 248.773438 182 L 255.59375 182 L 255.78125 182.957031 " fill-opacity="1" fill-rule="nonzero"/><path fill="#00adef" d="M 259.300781 182.957031 L 256.953125 182.957031 L 256.765625 182 L 259.117188 182 L 259.300781 182.957031 " fill-opacity="1" fill-rule="nonzero"/><path fill="#3bbec5" d="M 236.179688 147.476562 L 229.355469 147.476562 L 229.167969 146.519531 L 235.992188 146.519531 L 236.179688 147.476562 " fill-opacity="1" fill-rule="nonzero"/><path fill="#00adef" d="M 239.695312 147.476562 L 237.351562 147.476562 L 237.164062 146.519531 L 239.511719 146.519531 L 239.695312 147.476562 " fill-opacity="1" fill-rule="nonzero"/><path fill="#80cc28" d="M 242.152344 125.585938 L 239.023438 125.585938 L 238.839844 124.632812 L 241.96875 124.632812 L 242.152344 125.585938 " fill-opacity="1" fill-rule="nonzero"/><path fill="#80cc28" d="M 251.4375 151.558594 L 238.140625 151.558594 L 237.957031 150.601562 L 251.253906 150.601562 L 251.4375 151.558594 " fill-opacity="1" fill-rule="nonzero"/><path fill="#ffffff" d="M 259.820312 144.351562 L 239.742188 144.351562 L 239.558594 143.390625 L 259.632812 143.390625 L 259.820312 144.351562 " fill-opacity="1" fill-rule="nonzero"/><path fill="#ffffff" d="M 276.371094 144.351562 L 260.992188 144.351562 L 260.808594 143.390625 L 276.1875 143.390625 L 276.371094 144.351562 " fill-opacity="1" fill-rule="nonzero"/><path fill="#ffffff" d="M 268.234375 173.707031 L 256.589844 173.707031 L 256.777344 174.660156 L 268.421875 174.660156 L 268.234375 173.707031 " fill-opacity="1" fill-rule="nonzero"/><path fill="#ffffff" d="M 269.453125 173.707031 L 269.636719 174.660156 L 285.976562 174.660156 L 285.789062 173.707031 L 269.453125 173.707031 " fill-opacity="1" fill-rule="nonzero"/><path fill="#ffffff" d="M 262.238281 176.832031 L 257.199219 176.832031 L 257.378906 177.789062 L 262.421875 177.789062 L 262.238281 176.832031 " fill-opacity="1" fill-rule="nonzero"/><path fill="#ffffff" d="M 263.714844 176.832031 L 263.898438 177.789062 L 269.023438 177.789062 L 268.839844 176.832031 L 263.714844 176.832031 " fill-opacity="1" fill-rule="nonzero"/><path fill="#ffffff" d="M 283.441406 176.832031 L 283.625 177.789062 L 286.582031 177.789062 L 286.394531 176.832031 L 283.441406 176.832031 " fill-opacity="1" fill-rule="nonzero"/><path fill="#ffffff" d="M 282.3125 176.832031 L 270.058594 176.832031 L 270.242188 177.789062 L 282.496094 177.789062 L 282.3125 176.832031 " fill-opacity="1" fill-rule="nonzero"/><path fill="#984b67" d="M 459.277344 153.109375 C 464.378906 151.804688 469.234375 149.9375 473.914062 147.675781 C 473.789062 146.722656 473.675781 145.765625 473.578125 144.8125 C 472.722656 136.984375 473.550781 128.472656 471.589844 120.78125 C 468.820312 109.894531 459.433594 82.300781 443.289062 99.582031 C 437.382812 105.898438 436.078125 114.925781 434.480469 122.804688 C 432.398438 133.070312 431.0625 143.289062 430.304688 153.675781 C 439.90625 155.410156 449.75 155.546875 459.277344 153.109375 " fill-opacity="1" fill-rule="nonzero"/><g clip-path="url(#90af69740c)"><path fill="#1f2338" d="M 82.898438 445.34375 L 70.988281 445.34375 L 70.988281 213.3125 L 82.898438 213.3125 L 82.898438 445.34375 " fill-opacity="1" fill-rule="nonzero"/></g><g clip-path="url(#0166d8953d)"><path fill="#1f2338" d="M 70.988281 449.808594 L 70.988281 437.675781 L 192.425781 437.675781 L 192.425781 449.808594 L 70.988281 449.808594 " fill-opacity="1" fill-rule="nonzero"/></g><path fill="#1f2338" d="M 192.425781 445.34375 L 180.519531 445.34375 L 180.519531 213.3125 L 192.425781 213.3125 L 192.425781 445.34375 " fill-opacity="1" fill-rule="nonzero"/><path fill="#f78e8c" d="M 467.015625 148.449219 C 467.015625 148.449219 468.738281 170.8125 474.273438 188.296875 C 474.273438 188.296875 482.332031 219.460938 496.335938 194.480469 C 496.335938 194.480469 501.949219 177.167969 501.109375 149.667969 C 501.109375 149.667969 480.597656 131.515625 467.015625 148.449219 " fill-opacity="1" fill-rule="nonzero"/><path fill="#984b67" d="M 504.175781 159.972656 C 506.148438 148.980469 503.230469 131.488281 501.191406 120.507812 C 499.796875 112.949219 498.285156 108.015625 495.21875 100.910156 C 489.019531 86.519531 465.683594 89.050781 465.683594 89.050781 C 458.679688 96.421875 455.359375 115.496094 456.085938 126.386719 C 456.597656 134.054688 458.347656 155.574219 458.71875 164.753906 C 473.03125 169.058594 492.074219 169.3125 504.175781 159.972656 " fill-opacity="1" fill-rule="nonzero"/><path fill="#f78e8c" d="M 300.378906 424.648438 L 301.265625 396.226562 L 278.980469 396.226562 L 282.242188 422.109375 L 300.378906 424.648438 " fill-opacity="1" fill-rule="nonzero"/><path fill="#1c0c19" d="M 300.378906 424.648438 L 305.378906 449.808594 L 246.09375 449.808594 C 246.09375 449.808594 244.589844 445.953125 249.269531 442.699219 L 271.484375 432.542969 L 282.242188 422.109375 L 300.378906 424.648438 " fill-opacity="1" fill-rule="nonzero"/><path fill="#3e526e" d="M 281.214844 302.878906 L 268.28125 408.480469 C 268.28125 408.480469 285.371094 420.621094 303.15625 423.105469 L 336.660156 302.878906 L 281.214844 302.878906 " fill-opacity="1" fill-rule="nonzero"/><path fill="#f78e8c" d="M 313.019531 183.355469 C 311.074219 182.277344 305.496094 180.378906 303.085938 181.113281 C 301.132812 181.710938 297.417969 183.410156 295.492188 184.171875 C 291.699219 185.667969 288.324219 187.976562 284.984375 189.003906 C 278.976562 190.851562 275.363281 192.636719 272.804688 193.839844 C 268.558594 195.839844 265.023438 199.292969 268.242188 200.007812 C 272.339844 200.921875 282.113281 200.28125 286.234375 200.535156 C 291.90625 200.894531 297.59375 200.441406 303.25 200.796875 C 308.542969 201.125 314.582031 201.300781 319.597656 200.28125 C 327.152344 198.734375 327.464844 191.714844 321.5625 188.074219 C 316.039062 184.671875 321.5625 188.074219 313.019531 183.355469 " fill-opacity="1" fill-rule="nonzero"/><path fill="#f78e8c" d="M 254.042969 424.648438 L 262.011719 396.226562 L 239.726562 396.226562 L 235.902344 422.109375 L 254.042969 424.648438 " fill-opacity="1" fill-rule="nonzero"/><path fill="#251224" d="M 254.042969 424.648438 L 259.042969 449.808594 L 199.753906 449.808594 C 199.753906 449.808594 198.25 445.953125 202.925781 442.699219 L 225.144531 432.542969 L 235.902344 422.109375 L 254.042969 424.648438 " fill-opacity="1" fill-rule="nonzero"/><path fill="#455c7c" d="M 256.8125 423.105469 L 321.195312 304.375 L 407.890625 304.375 C 407.890625 304.375 459.769531 311.550781 474.757812 294.210938 C 474.757812 294.210938 487.867188 276.347656 479.585938 232.167969 L 388.585938 232.167969 L 384.488281 246.363281 L 300.949219 251.964844 C 276.261719 251.964844 271.433594 272.542969 271.433594 272.542969 L 221.941406 408.480469 C 221.941406 408.480469 239.03125 420.621094 256.8125 423.105469 " fill-opacity="1" fill-rule="nonzero"/><path fill="#f78e8c" d="M 437.300781 54.167969 C 430.914062 61.015625 421.511719 71.046875 412.605469 70.425781 C 404.007812 69.828125 401.484375 53.601562 399.625 46.75 C 399.0625 44.6875 398.660156 42.589844 398.429688 40.476562 C 398.136719 37.6875 397.5 34.90625 397.125 32.15625 L 397.09375 31.972656 C 396.976562 31.117188 396.886719 30.265625 396.839844 29.417969 C 396.816406 29.023438 396.808594 28.628906 396.800781 28.242188 C 396.785156 25.410156 397.3125 22.628906 399.058594 19.917969 C 402.445312 14.667969 409.410156 10.773438 415.96875 10.355469 C 425.078125 9.773438 434.902344 15.777344 438.933594 23.191406 C 444.09375 32.6875 445.410156 45.488281 437.300781 54.167969 " fill-opacity="1" fill-rule="nonzero"/><path fill="#f78e8c" d="M 418.164062 66.429688 L 420.257812 80.535156 L 449.457031 75.882812 L 444.945312 61.800781 C 444.945312 61.800781 437.707031 51.960938 418.164062 66.429688 " fill-opacity="1" fill-rule="nonzero"/><path fill="#39151d" d="M 409.675781 39.550781 C 412.972656 44.03125 410.171875 31.199219 415.25 29.824219 C 418.84375 28.851562 421.460938 31.808594 422.734375 35.179688 C 424.460938 39.769531 419.339844 40.683594 419.277344 44.167969 C 419.234375 46.605469 423.8125 58.042969 424.574219 60.269531 C 427.042969 67.464844 436.207031 68.148438 441.867188 64.570312 C 446.789062 61.464844 445.902344 58.761719 446.136719 57.03125 C 448.222656 42.019531 448.121094 41.992188 447.914062 27.597656 C 447.820312 21.222656 447.652344 16.195312 442.214844 11.566406 C 439.167969 8.972656 436.273438 9.585938 433.074219 7.773438 C 429.796875 5.921875 428.847656 3.101562 424.886719 2.128906 C 417.019531 0.195312 413.925781 5.585938 407.175781 6.410156 C 402.605469 6.96875 394.0625 8.113281 390.679688 10.316406 C 386.058594 13.324219 383.105469 16.9375 385.40625 23.175781 C 387.632812 29.199219 402.464844 29.730469 409.675781 39.550781 " fill-opacity="1" fill-rule="nonzero"/><path fill="#f78e8c" d="M 422.265625 33.460938 C 424.191406 36.621094 424.175781 41.425781 421.5 44.667969 C 417.875 49.082031 413.980469 46.511719 411.933594 43.023438 C 410.28125 40.207031 408.933594 34.53125 412.1875 31.390625 C 415.253906 28.429688 420.691406 30.871094 422.265625 33.460938 " fill-opacity="1" fill-rule="nonzero"/><path fill="#592630" d="M 414.144531 33.484375 C 413.765625 34.203125 413.613281 35.070312 413.613281 36.003906 C 413.613281 37.507812 414.019531 39.199219 414.8125 40.671875 C 415.601562 42.140625 416.804688 43.417969 418.464844 43.910156 C 418.847656 44.019531 419.238281 43.800781 419.351562 43.425781 C 419.464844 43.046875 419.246094 42.648438 418.863281 42.539062 C 417.703125 42.203125 416.742188 41.246094 416.066406 39.996094 C 415.394531 38.757812 415.035156 37.25 415.039062 36.003906 C 415.035156 35.230469 415.179688 34.566406 415.40625 34.152344 C 415.585938 33.804688 415.457031 33.371094 415.105469 33.1875 C 414.757812 33.003906 414.332031 33.132812 414.144531 33.484375 " fill-opacity="1" fill-rule="nonzero"/><path fill="#592630" d="M 418.386719 35.203125 C 417.695312 35.339844 416.890625 35.585938 416.140625 35.984375 C 415.398438 36.382812 414.6875 36.929688 414.316406 37.765625 C 414.15625 38.125 414.320312 38.546875 414.675781 38.703125 C 415.039062 38.863281 415.460938 38.703125 415.621094 38.339844 C 415.78125 37.953125 416.226562 37.550781 416.8125 37.238281 C 417.394531 36.929688 418.09375 36.714844 418.660156 36.601562 C 419.046875 36.527344 419.300781 36.152344 419.222656 35.765625 C 419.148438 35.378906 418.769531 35.128906 418.386719 35.203125 " fill-opacity="1" fill-rule="nonzero"/><path fill="#984b67" d="M 488.433594 93.941406 C 491.292969 98.332031 494.933594 99.46875 494.933594 108.4375 L 479.335938 226.851562 L 412.449219 226.851562 L 404.605469 170.167969 L 384.558594 147.261719 C 375.859375 115.679688 384.484375 104.664062 384.484375 104.664062 C 388.742188 101.835938 403.21875 91.441406 407.050781 88.203125 C 412.1875 83.863281 416.207031 80.660156 419.347656 78.242188 C 422.667969 75.695312 428.25 75.878906 432.207031 75.074219 C 436.332031 74.234375 444.390625 72.566406 448.386719 72.542969 L 488.433594 93.941406 " fill-opacity="1" fill-rule="nonzero"/><path fill="#984b67" d="M 486.324219 265.25 C 490.347656 255.808594 490.828125 226.203125 491.4375 206.863281 C 491.824219 194.566406 489.171875 176.941406 489.867188 165.480469 C 490.585938 153.683594 491.960938 141.519531 494.683594 130.152344 C 496.964844 120.632812 497.109375 98.792969 488.4375 93.933594 C 472.3125 84.914062 450.316406 104.71875 433.296875 111.625 C 424.820312 115.070312 417.535156 120.054688 411.796875 126.820312 C 407.78125 131.554688 402.25 138.492188 401.167969 144.726562 C 400.027344 151.324219 387.445312 155.398438 388.035156 162.160156 C 389.675781 180.859375 386.007812 193.085938 388.035156 219.652344 C 388.34375 223.664062 386.5625 228.132812 384.945312 231.6875 C 383.582031 234.667969 381.882812 237.511719 379.84375 240.078125 C 378.40625 241.894531 368.03125 245.792969 369.378906 247.375 C 374.855469 253.808594 395.011719 255.296875 399.988281 255.527344 C 411.835938 256.074219 415.652344 267.167969 423.378906 274.867188 C 432.539062 284.003906 440.203125 280.242188 452.070312 279.550781 C 457.03125 279.261719 460.703125 277.964844 465.417969 278.203125 C 469.921875 278.429688 474.800781 276.796875 479.425781 277.535156 " fill-opacity="1" fill-rule="nonzero"/><path fill="#f78e8c" d="M 355.707031 190.96875 C 347.535156 190.609375 339.382812 190.105469 331.214844 189.703125 C 323.816406 189.335938 316.300781 189.082031 308.9375 190.109375 C 310.707031 200.742188 329.582031 205.601562 337.941406 208.734375 C 347.105469 212.171875 355.292969 216.109375 364.648438 218.054688 C 374.925781 220.191406 383.429688 221.207031 389.855469 211.085938 C 392.941406 206.226562 393.804688 201.65625 392.667969 197.832031 C 381.332031 192.46875 368.25 191.523438 355.707031 190.96875 " fill-opacity="1" fill-rule="nonzero"/><path fill="#f78e8c" d="M 369.257812 160.550781 C 369.257812 160.550781 366.953125 182.867188 369.257812 201.054688 C 369.257812 201.054688 380.136719 212.582031 389.855469 211.085938 C 389.855469 211.085938 398.484375 195.0625 402.582031 167.855469 C 402.582031 167.855469 385.660156 146.324219 369.257812 160.550781 " fill-opacity="1" fill-rule="nonzero"/><path fill="#984b67" d="M 407.710938 177.339844 C 411.617188 166.871094 415.40625 156.027344 415.375 144.863281 C 415.355469 137.175781 413.164062 129.15625 411.421875 121.621094 C 407.898438 106.351562 384.484375 104.667969 384.484375 104.667969 C 376.273438 110.664062 369.589844 128.828125 368.351562 139.675781 C 367.480469 147.3125 366.128906 156.050781 364.847656 165.152344 C 378.164062 171.949219 392.8125 175.757812 407.710938 177.339844 " fill-opacity="1" fill-rule="nonzero"/><path fill="#1d1e32" d="M 418.707031 83.960938 C 430.261719 83.957031 442.265625 83.671875 452.390625 78.546875 C 452.746094 78.367188 452.882812 77.941406 452.703125 77.589844 C 452.527344 77.238281 452.097656 77.097656 451.746094 77.273438 C 442.023438 82.210938 430.242188 82.539062 418.707031 82.535156 C 418.3125 82.535156 417.992188 82.855469 417.992188 83.25 C 417.992188 83.640625 418.3125 83.960938 418.707031 83.960938 " fill-opacity="1" fill-rule="nonzero"/><path fill="#1d1e32" d="M 390.570312 102.625 C 394.015625 103.160156 397.828125 105.773438 400.917969 109.023438 C 404.019531 112.261719 406.410156 116.132812 407.160156 118.945312 C 408.234375 122.933594 408.660156 127.636719 408.660156 133.191406 C 408.660156 139.503906 408.113281 146.917969 407.386719 155.632812 C 407.355469 156.023438 407.644531 156.367188 408.039062 156.402344 C 408.433594 156.433594 408.773438 156.144531 408.808594 155.75 C 409.535156 147.03125 410.085938 139.589844 410.085938 133.191406 C 410.085938 127.566406 409.660156 122.746094 408.539062 118.574219 C 407.671875 115.394531 405.179688 111.433594 401.953125 108.042969 C 398.71875 104.664062 394.753906 101.855469 390.796875 101.214844 C 390.40625 101.152344 390.039062 101.417969 389.976562 101.808594 C 389.914062 102.195312 390.179688 102.5625 390.570312 102.625 " fill-opacity="1" fill-rule="nonzero"/><path fill="#1d1e32" d="M 242.769531 410.699219 C 249.832031 393.035156 271.882812 343.089844 279.570312 325.742188 C 283.96875 315.804688 288.148438 305.9375 293.449219 296.558594 C 295.183594 293.492188 296.816406 289.726562 298.703125 286.199219 C 300.582031 282.671875 302.722656 279.394531 305.371094 277.304688 C 308.214844 275.050781 311.964844 273.714844 315.914062 272.84375 C 319.863281 271.972656 323.996094 271.566406 327.605469 271.105469 C 335.878906 270.050781 345.125 270.511719 353.78125 270.25 C 366.828125 269.847656 377.179688 269.328125 388.136719 269.328125 C 394.371094 269.328125 400.804688 269.492188 408.054688 269.945312 C 408.445312 269.972656 408.789062 269.675781 408.808594 269.28125 C 408.835938 268.886719 408.535156 268.546875 408.144531 268.523438 C 400.867188 268.070312 394.394531 267.902344 388.136719 267.902344 C 377.132812 267.902344 366.769531 268.417969 353.734375 268.820312 C 345.160156 269.085938 335.878906 268.617188 327.425781 269.691406 C 323.847656 270.148438 319.664062 270.558594 315.605469 271.453125 C 311.550781 272.347656 307.597656 273.726562 304.484375 276.1875 C 301.570312 278.5 299.363281 281.933594 297.445312 285.527344 C 295.523438 289.121094 293.890625 292.886719 292.207031 295.855469 C 286.851562 305.332031 282.660156 315.242188 278.265625 325.164062 C 270.574219 342.523438 248.53125 392.445312 241.445312 410.171875 C 241.300781 410.535156 241.476562 410.949219 241.84375 411.097656 C 242.210938 411.242188 242.625 411.066406 242.769531 410.699219 " fill-opacity="1" fill-rule="nonzero"/><path fill="#1d1e32" d="M 287.269531 414.964844 C 298.445312 371.671875 301.65625 363.171875 309.636719 328.316406 C 309.722656 327.933594 309.480469 327.550781 309.09375 327.460938 C 308.710938 327.375 308.328125 327.613281 308.242188 327.996094 C 300.273438 362.808594 297.070312 371.28125 285.886719 414.609375 C 285.789062 414.992188 286.019531 415.378906 286.402344 415.480469 C 286.78125 415.574219 287.171875 415.347656 287.269531 414.964844 " fill-opacity="1" fill-rule="nonzero"/><path fill="#1d1e32" d="M 409.679688 39.542969 L 397.375 40.066406 L 397.375 42.007812 L 410.828125 40.492188 L 409.679688 39.542969 " fill-opacity="1" fill-rule="nonzero"/><path fill="#1d1e32" d="M 397.417969 38.902344 C 396.640625 38.902344 395.925781 38.953125 395.234375 39.097656 C 394.714844 39.203125 394.203125 39.363281 393.710938 39.613281 C 392.980469 39.972656 392.289062 40.582031 391.863281 41.355469 C 391.433594 42.125 391.273438 42.976562 391.277344 43.796875 C 391.28125 44.808594 391.492188 45.820312 391.84375 46.9375 C 392.195312 48.058594 392.699219 49.285156 393.34375 50.671875 C 394.023438 52.089844 394.832031 53.871094 396.386719 55.328125 C 396.90625 55.804688 397.429688 56.222656 398.074219 56.542969 C 398.707031 56.867188 399.464844 57.039062 400.15625 57.027344 C 400.867188 57.027344 401.492188 56.894531 402.132812 56.726562 L 401.054688 52.589844 C 400.566406 52.714844 400.269531 52.753906 400.15625 52.75 L 399.972656 52.710938 C 399.878906 52.667969 399.648438 52.515625 399.289062 52.183594 C 398.546875 51.523438 397.851562 50.234375 397.222656 48.859375 C 396.628906 47.585938 396.199219 46.511719 395.925781 45.652344 C 395.652344 44.796875 395.554688 44.152344 395.554688 43.796875 C 395.554688 43.53125 395.601562 43.445312 395.601562 43.445312 L 395.53125 43.40625 L 395.582031 43.46875 L 395.601562 43.445312 L 395.53125 43.40625 L 395.582031 43.46875 C 395.582031 43.46875 395.679688 43.386719 395.988281 43.3125 C 396.289062 43.234375 396.78125 43.179688 397.417969 43.179688 L 397.417969 38.902344 " fill-opacity="1" fill-rule="nonzero"/><path fill="#22335a" d="M 515.429688 322.910156 C 515.429688 328.46875 510.921875 332.972656 505.363281 332.972656 L 330.597656 332.972656 C 325.035156 332.972656 320.53125 328.46875 320.53125 322.910156 L 320.53125 312.941406 C 320.53125 307.382812 325.035156 302.878906 330.597656 302.878906 L 505.363281 302.878906 C 510.921875 302.878906 515.429688 307.382812 515.429688 312.941406 L 515.429688 322.910156 " fill-opacity="1" fill-rule="nonzero"/><path fill="#192542" d="M 505.363281 302.878906 L 419.015625 302.878906 C 424.578125 302.878906 429.082031 307.382812 429.082031 312.941406 L 429.082031 322.910156 C 429.082031 328.46875 424.578125 332.972656 419.015625 332.972656 L 505.363281 332.972656 C 510.921875 332.972656 515.429688 328.46875 515.429688 322.910156 L 515.429688 312.941406 C 515.429688 307.382812 510.921875 302.878906 505.363281 302.878906 " fill-opacity="1" fill-rule="nonzero"/><path fill="#101729" d="M 470.753906 332.972656 L 455.875 332.972656 L 455.875 216.851562 L 470.753906 216.851562 L 470.753906 332.972656 " fill-opacity="1" fill-rule="nonzero"/><path fill="#192542" d="M 510.007812 198.570312 C 510.007812 208.664062 501.820312 216.851562 491.722656 216.851562 L 420.257812 216.851562 C 410.152344 216.851562 401.964844 208.664062 401.964844 198.570312 L 401.964844 160.316406 C 401.964844 150.222656 410.152344 142.035156 420.257812 142.035156 L 491.722656 142.035156 C 501.820312 142.035156 510.007812 150.222656 510.007812 160.316406 L 510.007812 198.570312 " fill-opacity="1" fill-rule="nonzero"/><path fill="#22335a" d="M 413.046875 198.84375 L 412.847656 160.59375 C 412.800781 150.808594 420.449219 142.78125 430.117188 142.25 L 430.117188 142.035156 L 420.253906 142.035156 C 410.152344 142.035156 401.964844 150.222656 401.964844 160.316406 L 401.964844 198.570312 C 401.964844 208.664062 410.152344 216.851562 420.253906 216.851562 L 428.753906 216.851562 C 419.910156 215.597656 413.09375 208.03125 413.046875 198.84375 " fill-opacity="1" fill-rule="nonzero"/><path fill="#151b2f" d="M 409.5625 424.648438 L 395.609375 424.648438 L 395.609375 332.972656 L 409.5625 332.972656 L 409.5625 424.648438 " fill-opacity="1" fill-rule="nonzero"/><path fill="#1d2b4c" d="M 409.5625 424.648438 L 395.609375 424.648438 L 395.609375 404.921875 L 409.5625 404.921875 L 409.5625 424.648438 " fill-opacity="1" fill-rule="nonzero"/><path fill="#151b2f" d="M 412.585938 439.917969 C 412.585938 445.378906 408.160156 449.808594 402.691406 449.808594 C 397.226562 449.808594 392.796875 445.378906 392.796875 439.917969 C 392.796875 434.457031 397.226562 430.027344 402.691406 430.027344 C 408.160156 430.027344 412.585938 434.457031 412.585938 439.917969 " fill-opacity="1" fill-rule="nonzero"/><path fill="#497389" d="M 406.746094 439.917969 C 406.746094 442.152344 404.929688 443.96875 402.691406 443.96875 C 400.453125 443.96875 398.640625 442.152344 398.640625 439.917969 C 398.640625 437.679688 400.453125 435.867188 402.691406 435.867188 C 404.929688 435.867188 406.746094 437.679688 406.746094 439.917969 " fill-opacity="1" fill-rule="nonzero"/><path fill="#151b2f" d="M 358.390625 439.917969 C 358.390625 445.378906 353.960938 449.808594 348.492188 449.808594 C 343.03125 449.808594 338.601562 445.378906 338.601562 439.917969 C 338.601562 434.457031 343.03125 430.027344 348.492188 430.027344 C 353.960938 430.027344 358.390625 434.457031 358.390625 439.917969 " fill-opacity="1" fill-rule="nonzero"/><path fill="#497389" d="M 352.550781 439.917969 C 352.550781 442.152344 350.734375 443.96875 348.492188 443.96875 C 346.257812 443.96875 344.445312 442.152344 344.445312 439.917969 C 344.445312 437.679688 346.257812 435.867188 348.492188 435.867188 C 350.734375 435.867188 352.550781 437.679688 352.550781 439.917969 " fill-opacity="1" fill-rule="nonzero"/><path fill="#151b2f" d="M 466.785156 439.917969 C 466.785156 445.378906 462.355469 449.808594 456.886719 449.808594 C 451.425781 449.808594 446.992188 445.378906 446.992188 439.917969 C 446.992188 434.457031 451.425781 430.027344 456.886719 430.027344 C 462.355469 430.027344 466.785156 434.457031 466.785156 439.917969 " fill-opacity="1" fill-rule="nonzero"/><path fill="#497389" d="M 460.941406 439.917969 C 460.941406 442.152344 459.128906 443.96875 456.886719 443.96875 C 454.648438 443.96875 452.835938 442.152344 452.835938 439.917969 C 452.835938 437.679688 454.648438 435.867188 456.886719 435.867188 C 459.128906 435.867188 460.941406 437.679688 460.941406 439.917969 " fill-opacity="1" fill-rule="nonzero"/><path fill="#1d2b4c" d="M 463.113281 432.792969 C 460.933594 427.488281 454.765625 427.90625 454.765625 427.90625 L 407.109375 422.453125 L 398.277344 422.453125 L 350.617188 427.90625 C 350.617188 427.90625 344.453125 427.488281 342.269531 432.792969 L 463.113281 432.792969 " fill-opacity="1" fill-rule="nonzero"/><path fill="#5382a1" d="M 213.558594 94.582031 C 213.558594 94.582031 211.273438 95.921875 215.183594 96.375 C 219.925781 96.917969 222.347656 96.839844 227.570312 95.84375 C 227.570312 95.84375 228.945312 96.710938 230.863281 97.464844 C 219.152344 102.519531 204.359375 97.171875 213.558594 94.582031 " fill-opacity="1" fill-rule="nonzero"/><path fill="#5382a1" d="M 212.125 87.988281 C 212.125 87.988281 209.5625 89.898438 213.476562 90.308594 C 218.542969 90.832031 222.542969 90.875 229.460938 89.53125 C 229.460938 89.53125 230.417969 90.511719 231.925781 91.042969 C 217.765625 95.214844 201.992188 91.375 212.125 87.988281 " fill-opacity="1" fill-rule="nonzero"/><path fill="#e76f00" d="M 224.191406 76.796875 C 227.078125 80.144531 223.433594 83.15625 223.433594 83.15625 C 223.433594 83.15625 230.761719 79.347656 227.394531 74.574219 C 224.25 70.128906 221.84375 67.917969 234.890625 60.300781 C 234.890625 60.300781 214.410156 65.449219 224.191406 76.796875 " fill-opacity="1" fill-rule="nonzero"/><path fill="#5382a1" d="M 239.679688 99.460938 C 239.679688 99.460938 241.371094 100.863281 237.816406 101.949219 C 231.058594 104.011719 209.679688 104.636719 203.742188 102.03125 C 201.609375 101.097656 205.613281 99.800781 206.871094 99.527344 C 208.183594 99.242188 208.933594 99.292969 208.933594 99.292969 C 206.558594 97.609375 193.589844 102.601562 202.347656 104.03125 C 226.222656 107.929688 245.875 102.273438 239.679688 99.460938 " fill-opacity="1" fill-rule="nonzero"/><path fill="#5382a1" d="M 214.65625 81.152344 C 214.65625 81.152344 203.785156 83.753906 210.804688 84.699219 C 213.773438 85.097656 219.683594 85.007812 225.1875 84.542969 C 229.6875 84.160156 234.207031 83.347656 234.207031 83.347656 C 234.207031 83.347656 232.621094 84.03125 231.472656 84.820312 C 220.429688 87.746094 199.101562 86.386719 205.242188 83.394531 C 210.433594 80.867188 214.65625 81.152344 214.65625 81.152344 " fill-opacity="1" fill-rule="nonzero"/><path fill="#5382a1" d="M 234.164062 92.132812 C 245.386719 86.257812 240.195312 80.613281 236.574219 81.375 C 235.6875 81.5625 235.289062 81.722656 235.289062 81.722656 C 235.289062 81.722656 235.621094 81.203125 236.25 80.976562 C 243.414062 78.441406 248.925781 88.460938 233.9375 92.429688 C 233.9375 92.429688 234.109375 92.269531 234.164062 92.132812 " fill-opacity="1" fill-rule="nonzero"/><g clip-path="url(#08197dd22b)"><path fill="#e76f00" d="M 227.394531 47.996094 C 227.394531 47.996094 233.613281 54.257812 221.5 63.882812 C 211.785156 71.609375 219.285156 76.011719 221.496094 81.042969 C 215.824219 75.894531 211.664062 71.359375 214.457031 67.140625 C 218.554688 60.945312 229.902344 57.941406 227.394531 47.996094 " fill-opacity="1" fill-rule="nonzero"/></g><g clip-path="url(#7da867e91a)"><path fill="#5382a1" d="M 215.761719 108.046875 C 226.535156 108.742188 243.078125 107.660156 243.46875 102.527344 C 243.46875 102.527344 242.714844 104.472656 234.566406 106.019531 C 225.371094 107.761719 214.027344 107.558594 207.300781 106.441406 C 207.300781 106.441406 208.679688 107.589844 215.757812 108.046875 " fill-opacity="1" fill-rule="nonzero"/></g><g clip-path="url(#a89476a672)"><g clip-path="url(#694a3bc0a5)"><g clip-path="url(#410ecc9067)"><g clip-path="url(#97812fc28c)"><path fill="#5382a1" d="M 300.171875 166.660156 C 300.171875 166.660156 298.179688 168.054688 301.796875 168.164062 C 306.179688 168.292969 308.390625 168.035156 313.097656 166.726562 C 313.097656 166.726562 314.421875 167.410156 316.238281 167.945312 C 305.902344 173.449219 291.949219 169.726562 300.171875 166.660156 " fill-opacity="1" fill-rule="nonzero"/></g></g></g></g><g clip-path="url(#be746b6c9b)"><g clip-path="url(#f2408f54ac)"><g clip-path="url(#f8167f70a8)"><g clip-path="url(#851b520e4a)"><path fill="#5382a1" d="M 298.355469 160.765625 C 298.355469 160.765625 296.152344 162.703125 299.769531 162.773438 C 304.445312 162.859375 308.109375 162.589844 314.34375 160.832031 C 314.34375 160.832031 315.296875 161.652344 316.714844 162.019531 C 304.070312 166.910156 289.335938 164.632812 298.351562 160.765625 " fill-opacity="1" fill-rule="nonzero"/></g></g></g></g><g clip-path="url(#7d66c967ec)"><g clip-path="url(#bc002dafa8)"><g clip-path="url(#2b9a25c7e6)"><g clip-path="url(#56be158788)"><path fill="#e76f00" d="M 308.539062 149.648438 C 311.4375 152.472656 308.332031 155.496094 308.332031 155.496094 C 308.332031 155.496094 314.75 151.460938 311.304688 147.378906 C 308.082031 143.570312 305.707031 141.746094 317.070312 133.800781 C 317.070312 133.800781 298.710938 140.070312 308.539062 149.648438 " fill-opacity="1" fill-rule="nonzero"/></g></g></g></g><g clip-path="url(#3dc193a8ef)"><g clip-path="url(#f62b334200)"><g clip-path="url(#9c2ab1ff88)"><g clip-path="url(#46ba06f5d7)"><path fill="#5382a1" d="M 324.460938 169.082031 C 324.460938 169.082031 326.117188 170.230469 322.945312 171.492188 C 316.914062 173.894531 297.390625 176.109375 291.757812 174.199219 C 289.730469 173.511719 293.296875 172.023438 294.425781 171.675781 C 295.609375 171.316406 296.300781 171.304688 296.300781 171.304688 C 293.996094 169.957031 282.503906 175.5 290.632812 176.125 C 312.792969 177.832031 330.347656 171.164062 324.460938 169.082031 " fill-opacity="1" fill-rule="nonzero"/></g></g></g></g><g clip-path="url(#1030cd65f3)"><g clip-path="url(#1637df991b)"><g clip-path="url(#9de6a9aa13)"><g clip-path="url(#88c088713a)"><path fill="#5382a1" d="M 300.144531 154.347656 C 300.144531 154.347656 290.390625 157.554688 296.890625 157.871094 C 299.636719 158.007812 305.042969 157.46875 310.046875 156.621094 C 314.136719 155.925781 318.214844 154.835938 318.214844 154.835938 C 318.214844 154.835938 316.8125 155.582031 315.824219 156.390625 C 305.9375 159.90625 286.304688 160.3125 291.695312 157.117188 C 296.257812 154.414062 300.144531 154.347656 300.144531 154.347656 " fill-opacity="1" fill-rule="nonzero"/></g></g></g></g><g clip-path="url(#4a03e2f37b)"><g clip-path="url(#8ae54b49ac)"><g clip-path="url(#06d3fdbc91)"><g clip-path="url(#510e4239fe)"><path fill="#5382a1" d="M 318.847656 162.835938 C 328.671875 156.625 323.484375 151.886719 320.226562 152.859375 C 319.429688 153.097656 319.078125 153.273438 319.078125 153.273438 C 319.078125 153.273438 319.339844 152.773438 319.902344 152.519531 C 326.265625 149.660156 332.082031 158.355469 318.660156 163.125 C 318.660156 163.125 318.808594 162.96875 318.847656 162.835938 " fill-opacity="1" fill-rule="nonzero"/></g></g></g></g><g clip-path="url(#d441820f23)"><g clip-path="url(#433bcaf0c7)"><g clip-path="url(#d8be0bc7cb)"><g clip-path="url(#698cd5f5d7)"><path fill="#e76f00" d="M 309.261719 123.179688 C 309.261719 123.179688 315.433594 128.398438 305.082031 138.101562 C 296.785156 145.878906 303.988281 149.3125 306.398438 153.722656 C 300.8125 149.46875 296.65625 145.664062 298.886719 141.605469 C 302.160156 135.652344 312.320312 132.039062 309.261719 123.179688 " fill-opacity="1" fill-rule="nonzero"/></g></g></g></g><g clip-path="url(#357d770088)"><g clip-path="url(#71278d6d48)"><g clip-path="url(#a024db4df4)"><g clip-path="url(#97a5235bae)"><path fill="#5382a1" d="M 303.21875 178.746094 C 313.136719 178.546875 328.199219 176.285156 328.164062 171.582031 C 328.164062 171.582031 327.625 173.410156 320.28125 175.449219 C 311.996094 177.742188 301.597656 178.4375 295.351562 177.9375 C 295.351562 177.9375 296.703125 178.875 303.21875 178.746094 " fill-opacity="1" fill-rule="nonzero"/></g></g></g></g></svg>